<svg width="71" height="71" viewBox="0 0 71 71" fill="none" xmlns="http://www.w3.org/2000/svg">
<path d="M58.86 37.01C59 36.94 59 36.87 59.07 36.8C59.14 36.87 59.14 36.87 59.21 36.94C59.42 36.87 59.7 36.87 59.91 36.8C60.05 36.73 60.12 36.73 60.26 36.73C60.4 36.73 60.54 36.73 60.75 36.66C60.96 36.59 61.24 36.59 61.45 36.59V36.45C61.52 36.52 61.59 36.52 61.59 36.52C61.73 36.52 61.87 36.45 61.94 36.45C62.01 36.45 62.08 36.52 62.22 36.45C62.22 36.38 62.22 36.38 62.22 36.31C62.36 36.24 62.5 36.24 62.64 36.17C62.78 36.17 62.92 36.24 63.06 36.24C63.34 36.17 63.62 36.1 63.83 36.03V35.96C63.83 35.96 63.83 36.03 63.76 36.03C63.83 36.03 63.9 35.96 63.97 35.96C64.04 35.96 64.11 35.89 64.18 35.89C64.32 35.89 64.46 35.89 64.53 35.82C64.6 35.89 64.6 35.75 64.67 35.75C64.74 35.75 64.74 35.82 64.81 35.82C65.02 35.82 65.16 35.89 65.37 35.75C65.44 35.68 65.51 35.68 65.58 35.68C65.86 35.68 66.07 35.54 66.28 35.54C66.56 35.54 66.84 35.4 67.12 35.4C67.19 35.33 67.26 35.33 67.4 35.33C67.47 35.33 67.47 35.26 67.61 35.19C67.47 35.19 67.4 35.19 67.33 35.19H67.26V35.12H67.33C67.33 34.98 67.47 34.98 67.47 34.84C67.47 34.77 67.54 34.63 67.54 34.56C67.47 34.56 67.4 34.56 67.33 34.56C67.26 34.56 67.19 34.49 67.05 34.49C66.98 34.49 66.91 34.49 66.77 34.49C66.7 34.49 66.63 34.49 66.49 34.56C66.28 34.63 66 34.63 65.79 34.7C65.72 34.7 65.72 34.7 65.65 34.63C65.72 34.49 65.93 34.49 65.93 34.35C66.07 34.35 66.14 34.35 66.28 34.35C66.21 34.21 66.07 34.28 66 34.21C66 34.14 66 34.14 66.07 34.07C65.79 34.07 65.51 34.21 65.3 34C65.16 34.07 64.95 34.07 64.81 34.07C64.81 34 64.88 33.93 64.88 33.93C65.02 34 65.16 33.86 65.3 33.86C65.3 33.72 65.16 33.79 65.16 33.79C64.95 33.79 64.67 33.86 64.46 33.93C64.32 34 64.18 34 64.04 34C63.9 34 63.76 34.07 63.62 34.07C63.55 34.07 63.48 34.07 63.41 34.14C63.27 34.14 63.2 34.14 63.13 34.07C63.13 34 63.2 34 63.27 33.93C63.34 33.93 63.41 33.93 63.41 33.79C63.06 33.86 62.71 33.86 62.36 33.93C62.22 33.93 62.08 34 61.94 34C61.87 34 61.8 34 61.73 34C61.66 34 61.59 34 61.52 34C61.59 33.93 61.66 34 61.73 34C61.66 33.86 61.52 33.93 61.38 33.86C61.45 33.79 61.45 33.72 61.52 33.65C61.45 33.58 61.38 33.58 61.24 33.58C61.1 33.58 60.96 33.58 60.89 33.65C60.75 33.65 60.61 33.65 60.47 33.72C60.4 33.72 60.4 33.72 60.33 33.72C60.19 33.72 59.98 33.72 59.84 33.86C59.7 33.86 59.56 33.86 59.49 33.86C59.07 33.86 58.72 33.93 58.37 34C58.3 34 58.23 34.07 58.16 34C57.88 33.93 57.6 34 57.32 34C56.83 34.07 56.34 34.14 55.85 34.14C55.57 34.28 55.22 34.21 54.94 34.28C54.87 34.28 54.73 34.35 54.66 34.35C54.45 34.35 54.17 34.42 53.96 34.35C53.89 34.35 53.82 34.35 53.75 34.28L53.82 34.21C54.03 34.21 54.24 34.14 54.45 34.14C54.59 34.14 54.73 34.14 54.87 34.07C55.08 34 55.29 34 55.43 34.07C55.5 34 55.43 33.93 55.43 33.93C55.29 33.93 55.08 33.93 54.94 33.93C54.8 33.93 54.66 33.93 54.45 33.86C54.38 33.79 54.31 33.79 54.24 33.79C54.17 33.86 54.31 33.86 54.31 33.93V34C54.17 34 54.03 34 53.82 34.07C53.75 34.07 53.75 34 53.68 34C53.61 34 53.61 33.93 53.54 33.93C53.61 33.79 53.68 33.93 53.75 33.86C53.75 33.86 53.75 33.79 53.68 33.79C53.61 33.79 53.47 33.79 53.4 33.79C53.33 33.79 53.26 33.86 53.19 33.86C52.84 33.86 52.56 33.93 52.21 33.93C51.93 33.93 51.65 34 51.3 34C51.23 34 51.16 34 51.09 34C50.88 33.93 50.67 34 50.46 34C50.39 34 50.32 34 50.25 34.14C50.04 34.07 49.9 34.07 49.69 34.07C49.34 34.07 48.99 34.14 48.64 34.14C48.57 34.07 48.57 34.07 48.5 34C48.36 33.93 48.29 34.07 48.15 34.14C48.08 34.14 48.01 34.14 48.01 34.14C47.73 34.28 47.73 34.28 47.38 34.21C47.38 34.14 47.45 34.07 47.45 34C47.17 34 47.17 34.07 47.03 34.21C46.96 34.28 46.89 34.28 46.82 34.21C46.75 34.07 46.68 34.14 46.61 34.07L46.54 34.14C46.47 34.07 46.47 34.07 46.4 34C46.33 34.14 46.26 34.21 46.19 34.28C46.05 34.21 45.91 34.28 45.77 34.35C45.77 34.28 45.77 34.28 45.77 34.21C45.63 34.14 45.49 34.14 45.35 34.07C45.35 34.14 45.35 34.21 45.35 34.21C45.28 34.21 45.35 34.35 45.28 34.35C45.21 34.35 45.21 34.35 45.14 34.35C45.07 34.35 44.93 34.21 44.86 34.28C44.79 34.28 44.72 34.21 44.58 34.28H44.51C44.3 34.14 44.16 34.14 43.95 34.21C44.09 34.21 44.23 34.21 44.37 34.21C44.37 34.28 44.37 34.35 44.37 34.35C44.23 34.35 44.09 34.28 43.95 34.28C43.95 34.21 43.95 34.21 43.95 34.14C43.81 34.14 43.81 34.28 43.74 34.28C43.6 34.28 43.53 34.14 43.39 34.21V34.49C43.39 34.49 43.32 34.56 43.25 34.56C43.25 34.42 43.25 34.35 43.25 34.21C43.11 34.14 42.97 34.07 42.83 34.07C42.69 34.07 42.62 34.07 42.55 34.14V34.21H42.48L42.55 34.14C42.55 34.14 42.55 34.14 42.62 34.14H42.55C42.48 34.07 42.34 34.07 42.27 34.14C42.13 34.21 41.99 34.28 41.92 34.21C41.71 34.14 41.5 34.21 41.29 34.28C41.36 34.28 41.36 34.35 41.43 34.35C41.43 34.42 41.43 34.42 41.29 34.42V34.21C41.22 34.21 41.15 34.21 41.15 34.21C41.01 34.21 40.87 34.21 40.73 34.28C40.66 34.28 40.59 34.21 40.45 34.14C40.31 34.21 40.17 34.14 40.03 34.21C39.89 34.21 39.82 34.14 39.75 34.14C39.68 34.07 39.61 34 39.54 33.93C39.19 33.93 38.98 34.14 38.77 34.28C38.7 34.28 38.63 34.21 38.63 34.21H38.56C38.49 34.28 38.49 34.35 38.35 34.42C38.28 34.42 38.28 34.35 38.28 34.28C38.28 34.28 38.28 34.28 38.21 34.21C38.21 34.21 38.14 34.14 38.14 34.21C38 34.28 37.86 34.14 37.72 34.21C37.58 34.28 37.51 34.28 37.3 34.21C37.3 34.14 37.3 34.07 37.3 34.07C37.3 34.07 37.3 34.07 37.23 34C37.02 33.93 36.81 33.93 36.6 34C36.39 34 36.25 34 36.04 34C35.97 34 35.9 34 35.83 34C35.76 34.14 35.9 34.14 35.9 34.21C35.76 34.21 35.69 34.14 35.62 34C35.55 34 35.55 34.07 35.48 34.07C35.55 34.14 35.62 34.14 35.55 34.21C35.48 34.21 35.41 34.21 35.27 34.14C35.2 34.14 35.06 34.21 34.99 34.14L35.06 34.07C35.06 34.07 35.06 34 34.99 34C34.71 33.93 34.43 33.93 34.15 33.93C33.94 33.93 33.73 33.93 33.59 33.79H33.52C33.45 33.86 33.38 33.86 33.31 33.79C33.24 33.79 33.17 33.79 33.1 33.86C33.03 33.86 32.96 33.93 32.89 33.93C32.75 33.93 32.54 33.86 32.4 33.86C32.26 33.86 32.12 33.79 31.98 33.72H31.91C31.77 33.72 31.56 33.79 31.42 33.72C31.28 33.65 31.14 33.65 31 33.72C30.79 33.79 30.65 33.79 30.44 33.79C30.3 33.86 30.23 33.79 30.09 33.79C29.81 33.65 29.53 33.58 29.18 33.72C29.11 33.72 28.97 33.72 28.9 33.72C28.76 33.72 28.62 33.65 28.55 33.65C28.55 33.65 28.55 33.58 28.48 33.58C28.41 33.58 28.34 33.65 28.34 33.65C27.99 33.65 27.64 33.65 27.29 33.65H27.22C27.15 33.58 27.15 33.51 27.08 33.51V33.58C27.08 33.58 27.08 33.58 27.08 33.51C27.01 33.44 26.87 33.44 26.8 33.51C26.8 33.51 26.8 33.58 26.8 33.65C26.59 33.72 26.38 33.72 26.17 33.65C26.17 33.58 26.1 33.58 26.1 33.51C26.03 33.51 26.03 33.58 25.89 33.58C25.82 33.58 25.75 33.51 25.68 33.44C25.68 33.51 25.61 33.51 25.61 33.58C25.47 33.58 25.33 33.58 25.26 33.65C25.19 33.58 25.19 33.58 25.12 33.51H25.05C24.98 33.58 24.91 33.65 24.84 33.65C24.7 33.58 24.56 33.58 24.49 33.58C24.42 33.58 24.28 33.58 24.21 33.65C24.14 33.65 24.07 33.58 24 33.58C23.79 33.58 23.58 33.58 23.37 33.51C23.23 33.51 23.16 33.51 23.09 33.37C22.95 33.44 22.88 33.44 22.74 33.51C22.6 33.51 22.46 33.51 22.39 33.44C22.32 33.37 22.11 33.37 22.11 33.23C22.04 33.3 22.04 33.37 21.97 33.44C21.76 33.44 21.62 33.44 21.41 33.44C21.34 33.44 21.27 33.44 21.27 33.37C21.27 33.37 21.27 33.3 21.27 33.23C21.2 33.23 21.13 33.23 21.06 33.23C20.99 33.3 20.99 33.3 20.92 33.37C20.78 33.3 20.57 33.44 20.43 33.37C20.36 33.37 20.36 33.3 20.29 33.3L20.22 33.23C20.15 33.23 20.01 33.23 19.94 33.23C19.87 33.23 19.8 33.23 19.8 33.16C19.73 33.16 19.73 33.23 19.66 33.23C19.52 33.16 19.45 33.16 19.31 33.09C19.31 33.09 19.24 33.16 19.24 33.23C19.17 33.23 19.03 33.16 18.89 33.16C18.82 33.23 18.75 33.3 18.61 33.3C18.33 33.3 18.12 33.23 17.84 33.23C17.7 33.23 17.56 33.16 17.35 33.16C17.35 33.09 17.42 33.09 17.42 33.02C17.28 32.95 17.28 33.09 17.21 33.16C17.07 33.16 16.93 33.23 16.79 33.09C16.65 33.23 16.51 33.09 16.37 33.02C16.23 32.95 16.09 32.95 16.02 33.09C15.88 33.09 15.67 33.02 15.46 33.02C15.39 33.02 15.32 33.09 15.18 33.09C15.11 33.09 15.11 33.09 15.04 33.02C14.9 32.95 14.83 32.88 14.69 33.02C14.62 33.09 14.48 33.09 14.41 32.95C14.34 32.95 14.27 32.95 14.13 32.95L14.06 33.02C13.92 33.02 13.99 32.95 13.99 32.88C13.92 32.95 13.85 32.95 13.71 33.02C13.64 33.02 13.5 33.02 13.43 33.02C13.29 33.02 13.22 33.02 13.08 32.95H13.01C13.08 32.95 13.08 32.95 13.08 32.95C13.08 32.95 13.15 32.95 13.22 32.95V32.74C13.36 32.53 13.64 32.46 13.78 32.18H14.06C14.2 32.11 14.06 32.04 14.06 31.9C14.13 31.9 14.2 31.9 14.27 31.9C14.34 31.83 14.41 31.76 14.41 31.69C14.48 31.69 14.48 31.69 14.55 31.62C14.76 31.62 14.97 31.48 15.18 31.41C15.39 31.34 15.53 31.13 15.67 30.99C15.74 30.92 15.81 30.85 15.81 30.78C15.88 30.78 15.88 30.78 15.95 30.78C15.95 30.78 16.02 30.71 16.02 30.64C16.09 30.64 16.09 30.64 16.16 30.64C16.23 30.57 16.23 30.5 16.3 30.43C16.37 30.36 16.37 30.5 16.44 30.5C16.58 30.5 16.65 30.36 16.79 30.36C16.79 30.36 16.86 30.36 16.86 30.29C16.86 30.15 17 30.08 17.07 30.01C17.14 29.87 17.21 29.8 17.28 29.66C17.21 29.66 17.14 29.66 17.07 29.66C17.07 29.52 17.21 29.45 17.14 29.31C17 29.17 16.86 29.24 16.65 29.24C16.65 29.17 16.65 29.1 16.65 28.96C16.58 28.82 16.58 28.68 16.51 28.54C16.3 28.47 16.16 28.33 16.02 28.12C16.02 28.05 16.09 27.98 16.09 27.98C16.09 27.91 16.02 27.84 15.95 27.84C15.74 27.84 15.6 27.84 15.39 27.84H15.32C15.25 27.84 15.18 27.91 15.18 27.91C15.11 27.91 15.04 27.91 14.9 27.84C15.04 27.77 15.11 27.77 15.25 27.7C14.97 27.56 14.83 27.84 14.62 27.84C14.55 27.7 14.62 27.7 14.69 27.63C14.76 27.63 14.76 27.63 14.83 27.63V27.56C14.9 27.49 14.9 27.42 14.97 27.35C14.62 27.35 14.41 27.49 14.13 27.56C14.27 27.35 14.62 27.35 14.76 27.07C14.69 27.07 14.62 27 14.62 27C14.48 27 14.41 27.07 14.27 27.07C13.85 27.28 13.43 27.42 13.08 27.7C12.94 27.77 12.8 27.91 12.66 27.98C12.52 28.05 12.45 28.12 12.31 28.12C12.24 28.12 12.17 28.19 12.17 28.19C11.89 28.33 11.68 28.54 11.47 28.75C11.4 28.82 11.4 28.82 11.33 28.89C11.05 29.03 10.77 29.24 10.49 29.38C10.21 29.52 9.93 29.73 9.72 29.94C9.37 30.22 8.95 30.5 8.53 30.78C8.11 31.06 7.76 31.34 7.34 31.55C6.85 31.83 6.29 32.11 5.8 32.39C5.59 32.53 5.38 32.6 5.17 32.74C4.96 32.81 4.82 32.95 4.68 33.09C4.26 33.44 3.91 33.72 3.49 34.07C3.35 34.21 3.21 34.35 3.07 34.42C3 34.49 3 34.56 3 34.63C3 34.77 3 34.84 3 34.98C3.14 35.12 3.28 35.33 3.42 35.47C3.56 35.61 3.63 35.68 3.63 35.89C3.63 35.96 3.7 36.03 3.7 36.03C3.84 36.1 3.91 36.24 3.98 36.38C4.05 36.38 4.05 36.38 4.12 36.45C4.05 36.66 4.19 36.8 4.26 36.94C4.33 37.01 4.4 37.08 4.47 37.22C4.61 37.43 4.82 37.5 5.03 37.57C5.1 37.57 5.17 37.57 5.24 37.64C5.38 37.71 5.52 37.78 5.66 37.92C5.8 37.99 5.87 38.13 6.08 38.13C6.15 38.13 6.22 38.27 6.36 38.27C6.43 38.27 6.57 38.34 6.64 38.34C6.71 38.34 6.85 38.34 6.99 38.34H7.06C7.27 38.41 7.55 38.48 7.76 38.62C7.97 38.69 8.11 38.83 8.32 38.83C8.39 38.83 8.46 38.9 8.53 38.9C8.53 38.83 8.53 38.83 8.6 38.76C8.74 38.76 8.74 38.83 8.67 38.97C8.74 38.97 8.81 39.04 8.95 39.04C9.02 39.04 9.02 39.04 9.09 38.97C9.37 39.04 9.58 39.25 9.86 39.32C10.07 39.53 10.28 39.6 10.49 39.6C10.63 39.6 10.84 39.67 10.91 39.81C10.98 39.81 10.98 39.81 11.05 39.81C11.12 39.88 11.12 39.88 11.19 39.95C11.33 39.95 11.4 40.02 11.54 40.02C11.89 40.37 12.24 40.51 12.66 40.65C12.87 40.93 13.08 41.07 13.43 41.07C13.64 41.21 13.85 41.28 14.06 41.49C14.06 41.42 14.06 41.35 14.06 41.28C14.27 41.28 14.41 41.49 14.55 41.56C14.69 41.63 14.83 41.77 14.97 41.84C15.11 41.98 15.32 42.05 15.46 42.19C15.67 42.12 15.81 42.19 15.95 42.26C16.09 42.33 16.16 42.47 16.3 42.47C16.44 42.68 16.65 42.68 16.86 42.75C16.86 42.68 16.86 42.68 16.79 42.61C16.65 42.54 16.51 42.4 16.44 42.33H16.51C16.58 42.4 16.65 42.4 16.72 42.47C17 42.68 17.28 42.89 17.56 43.1C17.77 43.31 18.05 43.38 18.33 43.38V42.89H18.4C18.54 42.96 18.68 43.03 18.82 43.17C18.96 43.24 19.1 43.38 19.24 43.45C19.31 43.38 19.38 43.38 19.38 43.38C19.45 43.38 19.45 43.38 19.52 43.38C19.52 43.31 19.45 43.24 19.45 43.17C19.52 43.24 19.59 43.24 19.66 43.24C19.66 43.17 19.73 43.1 19.73 43.1C19.87 43.1 20.01 42.96 20.08 42.89C20.08 42.68 19.87 42.68 19.8 42.54C19.8 42.47 19.87 42.4 19.87 42.33C19.8 42.19 19.8 42.26 19.66 42.33C19.66 42.26 19.73 42.19 19.73 42.12C19.66 42.05 19.66 41.98 19.59 41.84C19.45 41.77 19.38 41.7 19.24 41.63C19.03 41.49 18.89 41.21 18.68 41.07C18.54 40.86 18.26 40.72 18.12 40.51L18.05 40.44C17.91 40.37 17.84 40.23 17.7 40.16C17.56 40.02 17.49 39.88 17.28 39.88C17.21 39.88 17.14 39.81 17.07 39.74C17 39.6 16.86 39.46 16.72 39.46C16.58 39.25 16.44 39.18 16.16 39.11C16.16 39.11 16.09 39.11 16.09 39.04C16.02 38.9 15.95 38.9 15.81 38.83C15.74 38.76 15.74 38.62 15.6 38.62C15.39 38.48 15.18 38.34 15.18 38.06C15.25 37.99 15.39 37.99 15.46 37.99C15.6 37.99 15.74 37.99 15.88 37.99C16.3 37.99 16.72 38.06 17.07 38.06C17.49 38.13 17.98 38.13 18.4 38.13C18.82 38.13 19.17 38.2 19.59 38.2C19.66 38.2 19.73 38.2 19.73 38.2C20.15 38.2 20.57 38.27 21.06 38.27C21.34 38.27 21.62 38.27 21.83 38.34C22.18 38.34 22.46 38.34 22.81 38.41C23.02 38.41 23.16 38.41 23.37 38.41C23.65 38.41 23.93 38.41 24.14 38.48H24.21C24.42 38.41 24.7 38.48 24.91 38.48C25.12 38.48 25.4 38.48 25.61 38.55C25.89 38.62 26.24 38.55 26.52 38.62C26.87 38.69 27.29 38.69 27.64 38.69C27.71 38.69 27.78 38.69 27.78 38.69C27.92 38.76 28.06 38.76 28.27 38.69C28.41 38.62 28.62 38.69 28.76 38.69C28.83 38.69 28.97 38.76 29.04 38.76C29.32 38.83 29.6 38.83 29.88 38.69C29.95 38.76 30.02 38.76 30.02 38.76C30.23 38.76 30.51 38.69 30.72 38.76C30.79 38.76 30.79 38.76 30.86 38.76C31.07 38.76 31.21 38.76 31.42 38.83C31.49 38.83 31.56 38.83 31.63 38.83C31.84 38.83 31.98 38.76 32.19 38.83C32.26 38.83 32.26 38.83 32.33 38.83C32.4 38.83 32.47 38.83 32.47 38.83C32.61 38.9 32.82 38.9 33.03 38.83C33.1 38.83 33.24 38.83 33.31 38.83C33.52 38.83 33.73 38.9 33.87 38.83C34.08 38.9 34.36 38.83 34.57 38.76C34.64 38.76 34.71 38.76 34.85 38.83C34.99 38.9 35.13 38.9 35.27 38.83C35.27 38.83 35.34 38.83 35.41 38.83C35.62 38.83 35.83 38.83 36.11 38.83C36.18 38.83 36.25 38.83 36.32 38.83C36.39 38.83 36.46 38.83 36.46 38.83C36.74 38.76 36.95 38.76 37.23 38.83C37.3 38.83 37.3 38.83 37.37 38.83C37.51 38.83 37.58 38.83 37.72 38.83C37.93 38.83 38.07 38.83 38.28 38.9C38.42 38.9 38.49 38.9 38.63 38.9C38.77 38.9 38.84 38.9 38.91 38.9C39.05 38.9 39.19 38.83 39.33 38.9C39.82 38.83 40.31 38.9 40.8 38.83C41.08 38.76 41.29 38.76 41.57 38.83C41.71 38.83 41.85 38.76 42.13 38.76C42.27 38.76 42.48 38.83 42.62 38.83C42.69 38.83 42.76 38.83 42.83 38.83C42.97 38.9 43.18 38.83 43.32 38.76C43.39 38.76 43.46 38.69 43.46 38.76C43.53 38.76 43.67 38.76 43.74 38.76C43.74 38.76 43.81 38.76 43.88 38.76C44.02 38.83 44.16 38.76 44.3 38.83C44.44 38.9 44.58 38.76 44.65 38.69C44.72 38.76 44.79 38.76 44.86 38.83C44.93 38.83 45 38.76 45.07 38.83C45.56 38.9 46.05 38.83 46.47 38.69C46.68 38.69 46.89 38.69 47.1 38.62C47.24 38.69 47.38 38.69 47.45 38.69C47.8 38.69 48.15 38.69 48.5 38.62C48.71 38.55 48.92 38.55 49.13 38.55C49.13 38.48 49.2 38.41 49.34 38.41C49.41 38.48 49.41 38.48 49.48 38.55C49.55 38.55 49.62 38.55 49.69 38.55C49.62 38.48 49.62 38.48 49.55 38.41C49.62 38.41 49.69 38.34 49.76 38.34C49.83 38.34 49.83 38.41 49.9 38.41C49.97 38.34 50.11 38.34 50.25 38.27C50.25 38.27 50.32 38.34 50.39 38.34C50.67 38.27 50.95 38.34 51.23 38.34C51.44 38.34 51.58 38.34 51.79 38.27C52.07 38.2 52.28 38.2 52.56 38.2C52.77 38.2 52.98 38.13 53.19 38.13C53.33 37.99 53.47 37.92 53.61 37.99C53.89 38.06 54.24 37.99 54.52 37.99C54.73 37.99 55.01 37.99 55.22 37.85C55.43 37.85 55.57 37.78 55.78 37.85C56.06 37.92 56.41 37.85 56.69 37.78C56.76 37.78 56.83 37.78 56.97 37.71C57.04 37.71 57.11 37.71 57.11 37.64C57.32 37.5 57.53 37.5 57.74 37.5C57.88 37.57 57.88 37.43 57.95 37.43C58.02 37.43 58.09 37.5 58.16 37.43C58.23 37.43 58.3 37.36 58.3 37.36C58.44 36.94 58.65 37.08 58.86 37.01C58.86 36.94 58.79 36.94 58.86 36.87C58.86 36.87 58.86 36.94 58.86 37.01Z" fill="black"/>
</svg>
