<svg width="70" height="69" viewBox="0 0 70 69" fill="none" xmlns="http://www.w3.org/2000/svg">
<path d="M11.71 36.78C11.71 36.71 11.71 36.71 11.71 36.64C11.78 36.64 11.71 36.71 11.71 36.78C11.92 36.85 12.13 36.71 12.34 36.71C12.41 36.71 12.48 36.78 12.48 36.78C12.55 36.78 12.62 36.78 12.69 36.78C12.76 36.78 12.83 36.92 12.9 36.85C13.11 36.92 13.32 36.85 13.53 36.99C13.6 36.99 13.6 36.99 13.67 37.06C13.74 37.06 13.81 37.06 13.95 37.13C14.23 37.2 14.58 37.27 14.86 37.2C15.07 37.2 15.21 37.2 15.42 37.2C15.63 37.34 15.84 37.34 16.12 37.34C16.4 37.34 16.75 37.41 17.03 37.34C17.17 37.34 17.31 37.34 17.45 37.48C17.66 37.48 17.87 37.55 18.08 37.55C18.36 37.55 18.64 37.55 18.85 37.62C19.06 37.62 19.2 37.69 19.41 37.69C19.69 37.69 19.97 37.69 20.25 37.69C20.32 37.69 20.32 37.69 20.39 37.62C20.53 37.69 20.6 37.69 20.74 37.76C20.81 37.69 20.81 37.69 20.88 37.69C20.95 37.69 21.02 37.76 21.09 37.76C21.02 37.83 21.02 37.83 20.95 37.9C21.02 37.9 21.09 37.9 21.16 37.9C21.23 37.83 21.23 37.83 21.3 37.76C21.44 37.76 21.44 37.83 21.51 37.9C21.72 37.9 21.93 37.9 22.14 37.97C22.49 38.04 22.84 38.04 23.19 38.04C23.33 38.04 23.47 38.04 23.54 37.97C23.75 38.04 23.96 38.04 24.17 38.04C24.66 38.11 25.08 38.18 25.57 38.18C25.64 38.18 25.71 38.25 25.78 38.18C25.85 38.18 25.92 38.11 25.99 38.04C26.13 38.11 26.2 38.25 26.34 38.18C26.48 38.11 26.62 38.25 26.76 38.11C26.76 38.11 26.83 38.11 26.9 38.11C26.97 38.18 27.04 38.18 27.18 38.11C27.25 38.11 27.32 38.11 27.32 38.11C27.46 38.18 27.6 38.25 27.81 38.18C27.88 38.18 27.95 38.18 28.02 38.18C28.23 38.18 28.44 38.18 28.51 38.11C28.72 38.18 28.93 38.18 29.07 38.18C29.35 38.18 29.56 38.18 29.84 38.18C30.33 38.25 30.82 38.18 31.31 38.25C31.45 38.18 31.59 38.32 31.73 38.25C31.87 38.25 31.94 38.25 32.01 38.25C32.08 38.25 32.22 38.25 32.36 38.25C32.57 38.25 32.71 38.18 32.92 38.18C32.99 38.18 33.13 38.18 33.27 38.18C33.34 38.18 33.41 38.18 33.41 38.18C33.69 38.11 33.9 38.11 34.18 38.18C34.25 38.18 34.25 38.18 34.32 38.18C34.39 38.18 34.46 38.18 34.53 38.18C34.74 38.18 34.95 38.18 35.23 38.18C35.3 38.18 35.3 38.18 35.37 38.18C35.51 38.32 35.65 38.25 35.79 38.18C35.86 38.18 35.93 38.11 36.07 38.11C36.28 38.18 36.49 38.18 36.77 38.18C36.98 38.25 37.19 38.18 37.33 38.18C37.4 38.18 37.54 38.18 37.61 38.18C37.82 38.18 37.96 38.25 38.17 38.18C38.24 38.18 38.24 38.18 38.31 38.18C38.38 38.18 38.45 38.25 38.45 38.18C38.66 38.11 38.8 38.18 39.01 38.18C39.08 38.18 39.15 38.18 39.22 38.18C39.43 38.11 39.57 38.18 39.78 38.11C39.85 38.11 39.92 38.11 39.92 38.11C40.13 38.04 40.41 38.04 40.62 38.11C40.69 38.11 40.76 38.04 40.76 38.04C41.04 38.11 41.32 38.18 41.6 38.11C41.67 38.11 41.81 38.04 41.88 38.04C42.02 38.04 42.23 37.97 42.37 38.04C42.51 38.11 42.65 38.11 42.86 38.04C42.93 38.04 42.93 38.04 43 38.04C43.35 38.04 43.77 38.04 44.12 37.97C44.4 37.9 44.68 37.97 45.03 37.9C45.24 37.9 45.52 37.83 45.73 37.83C45.94 37.83 46.22 37.76 46.43 37.83H46.5C46.78 37.76 47.06 37.76 47.27 37.76C47.48 37.76 47.62 37.76 47.83 37.76C48.18 37.69 48.46 37.69 48.81 37.69C49.09 37.69 49.37 37.69 49.58 37.62C50 37.55 50.42 37.48 50.91 37.55C50.98 37.55 51.05 37.55 51.05 37.55C51.47 37.55 51.82 37.48 52.24 37.48C52.66 37.48 53.15 37.41 53.57 37.41C53.99 37.34 54.34 37.34 54.76 37.34C54.9 37.34 55.04 37.34 55.18 37.34C55.25 37.34 55.39 37.34 55.46 37.41C55.46 37.69 55.25 37.83 55.04 37.97C54.9 37.97 54.9 38.11 54.83 38.18C54.69 38.25 54.55 38.25 54.55 38.39C54.55 38.39 54.55 38.39 54.48 38.46C54.27 38.53 54.06 38.6 53.92 38.81C53.78 38.88 53.64 39.02 53.57 39.09C53.5 39.16 53.43 39.23 53.36 39.23C53.15 39.3 53.08 39.37 52.94 39.51C52.8 39.58 52.73 39.72 52.59 39.79L52.52 39.86C52.38 40.07 52.1 40.21 51.96 40.42C51.75 40.56 51.54 40.77 51.4 40.98C51.26 41.05 51.19 41.19 51.05 41.19C50.98 41.33 50.91 41.4 50.91 41.47C50.91 41.54 50.98 41.61 50.98 41.68C50.91 41.68 50.84 41.61 50.77 41.68C50.77 41.75 50.84 41.82 50.84 41.89C50.77 42.1 50.56 42.1 50.56 42.24C50.7 42.31 50.77 42.45 50.91 42.45C50.91 42.52 50.98 42.59 50.98 42.59C51.05 42.59 51.12 42.52 51.19 42.52C51.19 42.59 51.12 42.66 51.12 42.73C51.19 42.73 51.26 42.73 51.26 42.73C51.33 42.73 51.4 42.8 51.4 42.8C51.54 42.66 51.68 42.59 51.82 42.52C51.96 42.45 52.1 42.38 52.24 42.24H52.31V42.38C52.59 42.38 52.87 42.31 53.08 42.1C53.36 41.89 53.64 41.68 53.92 41.47C53.99 41.4 54.06 41.4 54.13 41.33H54.2C54.06 41.47 53.99 41.54 53.85 41.61C53.78 41.61 53.78 41.68 53.78 41.75C53.99 41.68 54.2 41.75 54.34 41.47C54.48 41.47 54.62 41.33 54.69 41.26C54.83 41.19 55.04 41.12 55.18 41.19C55.32 41.05 55.53 40.98 55.67 40.84C55.81 40.77 55.95 40.63 56.09 40.56C56.23 40.49 56.37 40.28 56.58 40.28C56.58 40.35 56.58 40.42 56.58 40.49C56.79 40.35 57 40.21 57.21 40.07C57.56 40.07 57.77 39.93 57.98 39.65C58.4 39.58 58.82 39.37 59.1 39.02C59.17 39.02 59.31 39.02 59.45 38.95C59.52 38.88 59.52 38.88 59.59 38.81C59.66 38.81 59.66 38.81 59.73 38.81C59.8 38.6 60.01 38.6 60.15 38.6C60.43 38.6 60.64 38.46 60.78 38.32C61.06 38.32 61.27 38.11 61.55 37.97C61.55 37.97 61.62 37.97 61.69 38.04C61.76 38.04 61.83 37.97 61.97 37.97C61.97 37.9 61.97 37.83 62.04 37.76C62.04 37.83 62.04 37.83 62.11 37.9C62.18 37.83 62.25 37.83 62.32 37.83C62.53 37.76 62.67 37.69 62.88 37.62C63.09 37.55 63.3 37.48 63.58 37.34H63.65C63.79 37.34 63.86 37.34 64 37.34C64.07 37.34 64.21 37.27 64.28 37.27C64.42 37.27 64.42 37.13 64.56 37.13C64.77 37.13 64.84 37.06 64.98 36.92C65.12 36.85 65.26 36.78 65.4 36.64C65.47 36.57 65.54 36.57 65.61 36.57C65.82 36.5 66.03 36.43 66.17 36.22C66.24 36.15 66.31 36.08 66.38 35.94C66.52 35.8 66.59 35.66 66.52 35.45C66.59 35.45 66.59 35.45 66.66 35.38C66.73 35.24 66.8 35.1 66.94 35.03C67.01 35.03 67.01 34.96 67.01 34.89C67.01 34.75 67.15 34.61 67.22 34.47C67.36 34.33 67.5 34.19 67.64 33.98C67.64 33.91 67.64 33.77 67.64 33.63C67.64 33.56 67.57 33.49 67.57 33.42C67.43 33.28 67.29 33.14 67.15 33.07C66.73 32.72 66.38 32.44 65.96 32.09C65.82 31.95 65.68 31.81 65.47 31.74C65.26 31.67 65.05 31.53 64.84 31.39C64.35 31.11 63.79 30.83 63.3 30.55C62.88 30.34 62.46 30.06 62.11 29.78C61.69 29.5 61.34 29.22 60.92 28.94C60.64 28.73 60.43 28.59 60.15 28.38C59.87 28.17 59.59 28.03 59.31 27.89C59.24 27.89 59.24 27.82 59.17 27.75C58.96 27.54 58.75 27.33 58.47 27.19C58.4 27.19 58.33 27.12 58.33 27.12C58.19 27.12 58.05 27.05 57.98 26.98C57.84 26.91 57.7 26.77 57.56 26.7C57.14 26.42 56.79 26.28 56.37 26.07C56.3 26 56.16 26 56.02 26C55.95 26 55.95 26 55.88 26.07C56.09 26.28 56.37 26.35 56.51 26.56C56.23 26.49 55.95 26.35 55.67 26.35C55.74 26.42 55.81 26.49 55.81 26.56V26.63C55.88 26.63 55.88 26.63 55.95 26.63C56.02 26.7 56.09 26.77 56.02 26.84C55.81 26.84 55.6 26.63 55.39 26.7C55.46 26.77 55.6 26.77 55.74 26.84C55.6 26.84 55.53 26.91 55.46 26.91C55.39 26.91 55.32 26.84 55.32 26.84H55.25C55.04 26.84 54.9 26.84 54.69 26.84C54.62 26.84 54.55 26.91 54.55 26.98C54.55 27.05 54.62 27.12 54.62 27.12C54.48 27.26 54.34 27.47 54.13 27.54C54.06 27.68 54.06 27.82 53.99 27.96C53.99 28.03 53.99 28.1 53.99 28.24C53.78 28.24 53.64 28.24 53.5 28.31C53.43 28.45 53.57 28.52 53.57 28.66C53.5 28.66 53.43 28.66 53.36 28.66C53.43 28.8 53.5 28.87 53.57 29.01C53.64 29.08 53.78 29.15 53.78 29.29L53.85 29.36C53.99 29.36 54.06 29.5 54.2 29.5C54.27 29.5 54.27 29.43 54.34 29.43C54.41 29.5 54.41 29.57 54.48 29.64C54.55 29.64 54.55 29.64 54.62 29.64C54.62 29.71 54.69 29.71 54.69 29.78C54.76 29.78 54.76 29.78 54.83 29.78C54.9 29.85 54.97 29.92 54.97 29.99C55.11 30.13 55.25 30.34 55.46 30.41C55.67 30.48 55.88 30.62 56.09 30.62C56.16 30.62 56.16 30.62 56.23 30.69C56.23 30.83 56.3 30.9 56.37 30.9C56.44 30.9 56.51 30.9 56.58 30.9C56.58 30.97 56.44 31.11 56.58 31.18H56.86C57 31.39 57.28 31.53 57.42 31.74V31.95C57.49 31.95 57.49 31.95 57.56 31.95C57.56 31.88 57.63 31.88 57.63 31.95H57.56C57.49 32.02 57.35 32.02 57.21 32.02C57.07 32.02 57 32.02 56.93 32.02C56.79 31.95 56.72 31.95 56.65 31.88C56.65 31.95 56.72 32.02 56.58 32.02L56.51 31.95C56.44 31.95 56.37 31.95 56.23 31.95C56.16 32.09 56.09 32.09 55.95 32.02C55.81 31.95 55.67 31.95 55.6 32.02C55.6 32.02 55.53 32.09 55.46 32.09C55.32 32.09 55.25 32.02 55.18 32.02C54.97 32.09 54.83 32.09 54.62 32.09C54.48 31.95 54.41 31.95 54.27 32.02C54.13 32.09 54.06 32.23 53.85 32.09C53.71 32.23 53.57 32.16 53.43 32.16C53.36 32.09 53.36 31.95 53.22 32.02C53.22 32.09 53.22 32.09 53.29 32.16C53.15 32.23 53.01 32.23 52.8 32.23C52.52 32.23 52.31 32.3 52.03 32.3C51.89 32.3 51.82 32.3 51.75 32.16C51.61 32.16 51.54 32.23 51.4 32.23C51.33 32.16 51.33 32.16 51.33 32.09C51.19 32.16 51.05 32.16 50.98 32.23C50.91 32.16 50.91 32.16 50.84 32.16C50.84 32.23 50.77 32.23 50.7 32.23C50.63 32.23 50.49 32.23 50.42 32.23L50.35 32.3C50.28 32.3 50.28 32.37 50.21 32.37C50.07 32.44 49.86 32.37 49.72 32.37C49.65 32.3 49.65 32.3 49.58 32.23C49.51 32.23 49.44 32.23 49.37 32.23C49.37 32.3 49.37 32.3 49.37 32.37C49.37 32.44 49.3 32.44 49.23 32.44C49.02 32.44 48.81 32.44 48.67 32.44C48.6 32.37 48.6 32.3 48.53 32.23C48.46 32.44 48.32 32.37 48.25 32.44C48.18 32.51 48.04 32.51 47.9 32.51C47.76 32.51 47.62 32.51 47.55 32.37C47.48 32.51 47.34 32.51 47.27 32.51C47.06 32.51 46.85 32.51 46.64 32.58C46.57 32.58 46.5 32.65 46.43 32.65C46.36 32.58 46.29 32.58 46.15 32.58C46.01 32.58 45.94 32.65 45.8 32.65C45.73 32.58 45.66 32.51 45.59 32.51C45.59 32.51 45.59 32.51 45.52 32.51C45.45 32.58 45.38 32.58 45.38 32.65C45.24 32.65 45.1 32.65 45.03 32.58C45.03 32.51 44.96 32.51 44.96 32.44C44.89 32.51 44.75 32.58 44.75 32.58C44.61 32.58 44.68 32.44 44.54 32.51C44.54 32.58 44.47 32.58 44.47 32.65C44.26 32.72 44.05 32.79 43.84 32.65C43.84 32.58 43.84 32.58 43.84 32.51C43.77 32.51 43.63 32.44 43.56 32.51C43.56 32.51 43.56 32.51 43.56 32.58C43.56 32.58 43.56 32.58 43.56 32.51C43.49 32.58 43.49 32.65 43.42 32.65C43.35 32.65 43.35 32.65 43.35 32.65C43 32.65 42.65 32.65 42.3 32.65C42.23 32.65 42.16 32.58 42.16 32.58C42.16 32.58 42.16 32.65 42.09 32.65C41.95 32.65 41.81 32.72 41.74 32.72C41.67 32.72 41.53 32.79 41.46 32.72C41.18 32.65 40.83 32.72 40.55 32.79C40.41 32.86 40.34 32.86 40.2 32.79C39.99 32.72 39.85 32.72 39.64 32.72C39.5 32.72 39.36 32.72 39.22 32.72C39.08 32.79 38.94 32.72 38.73 32.72H38.66C38.52 32.79 38.38 32.86 38.24 32.86C38.1 32.86 37.89 32.93 37.75 32.93C37.68 32.93 37.61 32.93 37.54 32.86C37.47 32.86 37.4 32.79 37.33 32.79C37.26 32.79 37.19 32.79 37.12 32.79H37.05C36.84 32.86 36.7 32.86 36.49 32.93C36.21 32.93 35.93 33 35.65 33C35.65 33 35.65 33 35.58 33.07L35.65 33.14C35.58 33.28 35.44 33.14 35.37 33.14C35.3 33.14 35.16 33.14 35.09 33.21C35.02 33.07 35.09 33.07 35.16 33.07C35.09 33.07 35.02 33 35.02 33C34.95 33.14 34.81 33.21 34.74 33.21C34.74 33.14 34.88 33.14 34.81 33C34.74 33 34.67 33 34.6 33C34.39 33 34.25 33 34.04 33C33.83 32.93 33.62 33 33.41 33C33.41 33 33.41 33 33.34 33.07C33.34 33.14 33.34 33.21 33.34 33.21C33.06 33.28 33.06 33.28 32.92 33.21C32.78 33.14 32.64 33.28 32.5 33.21H32.43C32.43 33.21 32.43 33.21 32.36 33.28C32.36 33.35 32.43 33.42 32.29 33.42C32.22 33.42 32.15 33.35 32.08 33.21H32.01C31.94 33.21 31.87 33.28 31.87 33.28C31.59 33.14 31.38 32.93 31.1 32.93C31.03 33 30.96 33.07 30.89 33.14C30.82 33.14 30.68 33.21 30.61 33.21C30.47 33.07 30.33 33.21 30.19 33.14C30.12 33.21 30.05 33.21 29.91 33.28C29.77 33.21 29.63 33.21 29.49 33.21C29.42 33.21 29.35 33.21 29.35 33.21V34.26C29.21 34.26 29.21 34.19 29.21 34.19C29.21 34.12 29.28 34.12 29.35 34.12C29.14 34.05 28.93 33.98 28.72 34.05C28.58 34.05 28.44 34.05 28.37 33.98C28.3 33.91 28.16 33.91 28.09 33.98C28.09 33.98 28.16 33.98 28.16 34.05H28.09V33.98C28.02 33.91 27.88 33.91 27.81 33.91C27.67 33.91 27.53 33.98 27.39 34.05C27.39 34.19 27.39 34.26 27.39 34.4C27.32 34.4 27.25 34.33 27.25 34.33V34.12C27.11 34.05 27.04 34.19 26.9 34.19C26.83 34.12 26.83 33.98 26.69 34.05C26.69 34.05 26.69 34.12 26.69 34.19C26.55 34.19 26.41 34.26 26.27 34.26C26.27 34.19 26.27 34.19 26.27 34.12C26.41 34.12 26.55 34.12 26.69 34.12C26.48 34.05 26.27 34.05 26.13 34.19H26.06C25.99 34.12 25.85 34.19 25.78 34.19C25.64 34.19 25.57 34.26 25.5 34.26C25.43 34.26 25.43 34.26 25.36 34.26C25.29 34.19 25.36 34.12 25.29 34.12C25.29 34.12 25.29 34.05 25.29 33.98C25.15 34.05 25.01 34.05 24.87 34.12C24.87 34.19 24.87 34.19 24.87 34.26C24.73 34.19 24.59 34.19 24.45 34.19C24.38 34.05 24.31 33.98 24.24 33.91C24.17 33.98 24.1 34.05 24.1 34.05L24.03 33.98C23.96 34.05 23.82 33.98 23.82 34.12C23.82 34.19 23.68 34.12 23.61 34.12C23.4 33.91 23.4 33.91 23.19 33.91C23.26 33.98 23.26 34.05 23.26 34.12C22.91 34.19 22.91 34.19 22.63 34.05C22.56 34.05 22.56 34.05 22.49 34.05C22.42 33.98 22.35 33.84 22.14 33.91C22.07 33.91 22.07 33.98 22 34.05C21.65 34.05 21.3 33.98 20.95 33.98C20.74 33.98 20.6 33.98 20.39 34.05C20.32 33.98 20.25 33.91 20.18 33.91C19.97 33.91 19.76 33.84 19.55 33.91C19.48 33.91 19.41 33.91 19.34 33.91C19.06 33.84 18.78 33.84 18.43 33.84C18.15 33.84 17.8 33.77 17.45 33.77C17.38 33.77 17.31 33.7 17.24 33.7C17.17 33.7 17.03 33.7 16.96 33.7C16.96 33.7 16.96 33.77 16.89 33.77C16.96 33.84 17.03 33.7 17.1 33.84C17.03 33.84 17.03 33.91 16.96 33.91C16.89 33.98 16.89 33.98 16.82 33.98C16.68 33.98 16.47 33.98 16.33 33.91C16.33 33.91 16.33 33.91 16.33 33.84C16.33 33.77 16.47 33.77 16.4 33.7C16.33 33.63 16.26 33.7 16.19 33.77C16.05 33.84 15.91 33.84 15.7 33.84C15.56 33.84 15.35 33.84 15.21 33.84C15.14 33.84 15.14 33.91 15.21 33.98C15.42 33.91 15.56 33.91 15.77 33.98C15.91 34.05 16.05 34.05 16.19 34.05C16.4 34.05 16.61 34.12 16.82 34.12L16.89 34.19C16.82 34.19 16.75 34.19 16.68 34.26C16.47 34.33 16.19 34.19 15.98 34.26C15.91 34.26 15.77 34.19 15.7 34.19C15.42 34.12 15.07 34.19 14.79 34.05C14.3 34.05 13.81 33.98 13.32 33.91C13.04 33.84 12.76 33.77 12.48 33.91C12.41 33.91 12.34 33.91 12.27 33.91C11.92 33.84 11.5 33.77 11.15 33.77C11.01 33.77 10.87 33.77 10.8 33.77C10.66 33.63 10.45 33.63 10.31 33.63C10.24 33.63 10.24 33.63 10.17 33.63C10.03 33.56 9.88999 33.56 9.74999 33.56C9.60999 33.56 9.46999 33.56 9.39999 33.49C9.32999 33.49 9.18998 33.49 9.11998 33.56C9.18998 33.63 9.18999 33.7 9.25999 33.77C9.11999 33.84 8.97999 33.77 8.90999 33.91C8.97999 33.91 9.04998 33.84 9.11998 33.91C9.04998 33.91 8.97999 33.91 8.90999 33.91C8.83999 33.91 8.76999 33.91 8.69999 33.91C8.55999 33.91 8.41999 33.84 8.27999 33.84C7.92999 33.77 7.57999 33.77 7.22999 33.7C7.22999 33.84 7.29998 33.77 7.36999 33.84C7.43999 33.84 7.50998 33.84 7.50998 33.98C7.43998 34.05 7.29999 34.05 7.22999 34.05C7.15999 34.05 7.08998 33.98 7.01999 33.98C6.87998 33.98 6.73999 33.91 6.59999 33.91C6.45999 33.91 6.31999 33.91 6.17999 33.84C5.54999 33.56 5.33999 33.56 5.05999 33.56C4.98999 33.56 4.91999 33.56 4.91999 33.63C5.05999 33.63 5.19999 33.77 5.33999 33.7C5.40999 33.7 5.47999 33.77 5.40999 33.84C5.26999 33.91 5.05999 33.84 4.91999 33.77C4.70999 33.98 4.42999 33.84 4.14999 33.84C4.14999 33.91 4.21999 33.98 4.21999 33.98C4.14999 34.05 4.00999 33.98 3.93999 34.12C4.07999 34.12 4.14999 34.12 4.28999 34.12C4.35999 34.26 4.49999 34.26 4.56999 34.4C4.49999 34.4 4.42999 34.47 4.42999 34.47C4.21999 34.47 3.93999 34.47 3.72999 34.33C3.65999 34.33 3.58999 34.26 3.44999 34.26C3.37999 34.26 3.30999 34.26 3.16999 34.26C3.09999 34.26 2.95999 34.33 2.88999 34.33C2.81999 34.33 2.74999 34.33 2.67999 34.33C2.74999 34.47 2.74999 34.54 2.74999 34.61C2.74999 34.75 2.88999 34.75 2.88999 34.89H2.95999C2.95999 34.89 2.95999 34.89 2.95999 34.96H2.88999C2.81999 34.96 2.74999 34.96 2.60999 34.96C2.67999 35.03 2.74999 35.1 2.81999 35.1C2.88999 35.1 3.02999 35.1 3.09999 35.17C3.37999 35.17 3.65999 35.31 3.93999 35.31C4.21999 35.31 4.42999 35.45 4.63999 35.45C4.70999 35.45 4.84999 35.45 4.84999 35.52C4.98999 35.66 5.19999 35.59 5.40999 35.59C5.47999 35.59 5.47999 35.52 5.54999 35.52C5.61999 35.52 5.61999 35.66 5.68999 35.59C5.96999 35.66 6.03999 35.73 6.17999 35.66C6.24999 35.66 6.31999 35.73 6.38999 35.73C6.45999 35.73 6.52999 35.8 6.59999 35.8C6.59999 35.8 6.59999 35.73 6.52999 35.73V35.8C6.80999 35.87 7.08999 35.94 7.29999 36.01C7.43999 36.01 7.57999 35.94 7.71999 35.94C7.85998 36.01 7.99999 36.08 8.13999 36.08C8.13999 36.15 8.13999 36.15 8.13999 36.22C8.27999 36.29 8.34998 36.22 8.41998 36.22C8.48998 36.22 8.62998 36.22 8.76998 36.29C8.76998 36.29 8.83999 36.22 8.90999 36.22V36.36C9.11999 36.36 9.39999 36.43 9.60999 36.43C9.74999 36.43 9.88999 36.5 10.1 36.5C10.24 36.5 10.38 36.5 10.45 36.57C10.66 36.71 10.94 36.71 11.15 36.71C11.22 36.64 11.29 36.64 11.29 36.57C11.57 36.64 11.57 36.71 11.71 36.78Z" fill="black"/>
</svg>
