<svg width="396" height="451" viewBox="0 0 396 451" fill="none" xmlns="http://www.w3.org/2000/svg">
<g filter="url(#filter0_d_108_919)">
<path d="M168.547 84.7745C170.948 89.8718 176.203 92.7749 181.335 94.4494C187.084 96.325 193.232 97.0193 199.258 96.6473C205.295 96.2741 211.259 94.8153 216.769 92.3084C217.468 91.9898 218.162 91.6554 218.853 91.3209C219.246 91.1307 219.798 91.8432 219.367 92.0746C216.274 93.7382 212.943 95.0031 209.518 95.9009C209.569 95.9118 209.62 95.9373 209.66 95.9785C211.018 97.4215 212.275 98.8706 213.861 100.08C215.419 101.267 217.147 102.215 218.985 102.888C222.834 104.298 227.11 104.359 231.031 103.199C233.055 102.6 234.9 101.64 236.695 100.556C236.678 100.543 236.661 100.531 236.644 100.518C236.264 100.229 236.638 99.7055 237.021 99.9975C237.108 100.064 237.197 100.128 237.286 100.195C237.299 100.186 237.311 100.179 237.324 100.172C237.479 100.075 237.679 100.269 237.578 100.413C241.178 103.058 245.288 105.103 249.715 105.835C253.913 106.529 258.296 105.916 262.039 103.84C263.018 103.296 263.944 102.653 264.79 101.917C265.468 101.325 266.029 100.636 266.628 99.9793C265.208 99.9332 263.791 99.8702 262.383 99.7975C261.289 99.7406 260.196 99.6594 259.103 99.5794C258.665 99.5479 258.49 98.741 259.011 98.7616C267.424 99.0863 275.943 99.6679 284.223 97.7281C290.863 96.1723 297.269 92.8912 301.715 87.5988C303.814 85.1004 305.403 82.1913 306.209 79.0168C307.124 75.4122 306.973 71.5883 305.997 68.0128C304.027 60.7926 298.765 55.041 292.324 51.4655C285.164 47.4901 276.89 46.2034 268.791 46.3318C267.762 46.3488 266.734 46.3875 265.708 46.4445C265.442 46.459 265.29 46.0228 265.6 46.0034C265.815 45.9901 266.031 45.9816 266.246 45.9707C266.198 45.9465 266.156 45.9089 266.139 45.8544C263.437 37.6674 255.798 32.1436 247.559 30.5636C242.724 29.6367 237.699 29.9081 232.908 30.9756C228.374 31.9849 223.845 33.6218 220.073 36.3928C216.1 39.3116 212.993 43.6735 212.426 48.6703C212.368 49.1767 211.586 48.9829 211.633 48.5346C211.68 48.0838 211.752 47.6404 211.838 47.1993C210.845 46.6359 209.9 46.0047 208.841 45.543C207.575 44.9905 206.247 44.5967 204.888 44.3593C202.142 43.8807 199.288 44.0152 196.615 44.827C191.363 46.4215 187.359 50.644 185.614 55.8165C184.648 58.682 184.405 61.7741 185.019 64.7426C185.113 65.1994 184.426 65.186 184.341 64.7922C184.304 64.6178 184.279 64.4421 184.247 64.2676C181.742 64.0338 179.232 64.1937 176.842 65.0358C174.386 65.9021 172.127 67.4166 170.447 69.4195C166.941 73.6032 166.227 79.8468 168.547 84.7745Z" fill="white"/>
<path d="M269.519 125.399C269.641 125.754 269.979 125.994 270.306 126.142C271.055 126.481 271.95 126.501 272.734 126.273C273.393 126.082 274.357 125.492 273.677 124.74C273.224 124.241 272.529 123.936 271.84 123.807C271.122 123.85 270.342 123.876 269.81 124.419C269.554 124.68 269.395 125.038 269.519 125.399Z" fill="white"/>
<path d="M168.547 365.65C170.948 360.552 176.203 357.649 181.335 355.975C187.084 354.099 193.232 353.405 199.258 353.777C205.295 354.15 211.259 355.609 216.769 358.116C217.468 358.434 218.162 358.769 218.853 359.103C219.246 359.293 219.798 358.581 219.367 358.349C216.274 356.686 212.943 355.421 209.518 354.523C209.569 354.512 209.62 354.487 209.66 354.446C211.018 353.003 212.275 351.553 213.861 350.344C215.419 349.157 217.147 348.209 218.985 347.536C222.834 346.127 227.11 346.065 231.031 347.225C233.055 347.824 234.9 348.784 236.695 349.868C236.678 349.881 236.661 349.894 236.644 349.906C236.264 350.195 236.638 350.719 237.021 350.427C237.108 350.36 237.197 350.296 237.286 350.229C237.299 350.238 237.311 350.245 237.324 350.252C237.479 350.349 237.679 350.155 237.578 350.011C241.178 347.366 245.288 345.321 249.715 344.589C253.913 343.895 258.296 344.508 262.039 346.585C263.018 347.129 263.944 347.771 264.79 348.507C265.468 349.099 266.029 349.788 266.628 350.445C265.208 350.491 263.791 350.554 262.383 350.627C261.289 350.683 260.196 350.765 259.103 350.845C258.665 350.876 258.49 351.683 259.011 351.662C267.424 351.338 275.943 350.756 284.223 352.696C290.863 354.252 297.269 357.533 301.715 362.825C303.814 365.324 305.403 368.233 306.209 371.407C307.124 375.012 306.973 378.836 305.997 382.411C304.027 389.631 298.765 395.383 292.324 398.959C285.164 402.934 276.89 404.221 268.791 404.092C267.762 404.075 266.734 404.037 265.708 403.98C265.442 403.965 265.29 404.401 265.6 404.421C265.815 404.434 266.031 404.442 266.246 404.453C266.198 404.478 266.156 404.515 266.139 404.57C263.437 412.757 255.798 418.28 247.559 419.86C242.724 420.787 237.699 420.516 232.908 419.449C228.374 418.439 223.845 416.802 220.073 414.031C216.1 411.112 212.993 406.751 212.426 401.754C212.368 401.247 211.586 401.441 211.633 401.89C211.68 402.34 211.752 402.784 211.838 403.225C210.845 403.788 209.9 404.419 208.841 404.881C207.575 405.434 206.247 405.827 204.888 406.065C202.142 406.543 199.288 406.409 196.615 405.597C191.363 404.003 187.359 399.78 185.614 394.608C184.648 391.742 184.405 388.65 185.019 385.682C185.113 385.225 184.426 385.238 184.341 385.632C184.304 385.806 184.279 385.982 184.247 386.156C181.742 386.39 179.232 386.23 176.842 385.388C174.386 384.522 172.127 383.007 170.447 381.005C166.941 376.821 166.227 370.577 168.547 365.65Z" fill="white"/>
<path d="M269.519 325.025C269.641 324.67 269.979 324.43 270.306 324.282C271.055 323.943 271.95 323.923 272.734 324.151C273.393 324.343 274.357 324.933 273.677 325.684C273.224 326.183 272.529 326.488 271.84 326.617C271.122 326.574 270.342 326.548 269.81 326.005C269.554 325.744 269.395 325.386 269.519 325.025Z" fill="white"/>
<path d="M311.403 148.222C306.323 150.63 303.429 155.902 301.76 161.052C299.891 166.819 299.199 172.987 299.569 179.032C299.941 185.089 301.395 191.072 303.894 196.601C304.212 197.302 304.545 197.998 304.878 198.691C305.068 199.086 304.358 199.64 304.127 199.207C302.469 196.104 301.208 192.762 300.313 189.326C300.302 189.377 300.277 189.428 300.236 189.468C298.798 190.831 297.353 192.092 296.148 193.683C294.964 195.246 294.02 196.98 293.348 198.824C291.944 202.686 291.882 206.975 293.039 210.909C293.636 212.94 294.592 214.791 295.673 216.592C295.687 216.575 295.699 216.558 295.711 216.541C295.999 216.159 296.521 216.535 296.23 216.919C296.164 217.006 296.1 217.096 296.033 217.184C296.042 217.197 296.049 217.21 296.056 217.223C296.153 217.378 295.959 217.579 295.816 217.477C293.179 221.089 291.141 225.212 290.411 229.654C289.719 233.866 290.33 238.263 292.4 242.018C292.943 243 293.583 243.93 294.317 244.778C294.906 245.459 295.594 246.021 296.248 246.622C296.294 245.197 296.357 243.776 296.429 242.363C296.486 241.265 296.567 240.169 296.647 239.072C296.678 238.634 297.482 238.458 297.462 238.98C297.138 247.42 296.558 255.967 298.492 264.274C300.043 270.936 303.313 277.364 308.588 281.824C311.079 283.929 313.978 285.524 317.142 286.332C320.735 287.25 324.547 287.099 328.111 286.12C335.307 284.143 341.04 278.864 344.604 272.402C348.567 265.218 349.849 256.917 349.721 248.792C349.704 247.76 349.666 246.729 349.609 245.699C349.594 245.432 350.029 245.28 350.049 245.591C350.062 245.807 350.07 246.023 350.081 246.239C350.105 246.191 350.143 246.148 350.197 246.131C358.358 243.421 363.863 235.757 365.438 227.492C366.362 222.64 366.092 217.599 365.028 212.792C364.022 208.244 362.39 203.7 359.628 199.916C356.719 195.93 352.371 192.812 347.39 192.244C346.886 192.186 347.079 191.401 347.526 191.448C347.975 191.495 348.417 191.568 348.857 191.654C349.418 190.658 350.047 189.709 350.507 188.647C351.058 187.377 351.451 186.044 351.687 184.681C352.164 181.926 352.03 179.063 351.221 176.381C349.632 171.112 345.423 167.095 340.267 165.344C337.411 164.375 334.329 164.132 331.37 164.747C330.915 164.842 330.928 164.152 331.321 164.067C331.495 164.03 331.67 164.004 331.844 163.973C332.077 161.46 331.917 158.941 331.078 156.543C330.215 154.08 328.705 151.813 326.709 150.128C322.538 146.61 316.315 145.894 311.403 148.222Z" fill="white"/>
<path d="M270.911 249.523C270.557 249.645 270.318 249.984 270.171 250.313C269.833 251.064 269.813 251.962 270.04 252.748C270.231 253.41 270.819 254.376 271.568 253.694C272.066 253.24 272.37 252.543 272.498 251.851C272.456 251.132 272.429 250.349 271.888 249.815C271.629 249.558 271.271 249.399 270.911 249.523Z" fill="white"/>
<path d="M84.5965 148.222C89.6773 150.63 92.5709 155.902 94.24 161.052C96.1095 166.819 96.8015 172.987 96.4307 179.032C96.0588 185.089 94.6047 191.072 92.106 196.601C91.7884 197.302 91.455 197.998 91.1217 198.691C90.9321 199.086 91.6422 199.64 91.8729 199.207C93.5311 196.104 94.7919 192.762 95.6868 189.326C95.6977 189.377 95.723 189.428 95.7641 189.468C97.2025 190.831 98.6469 192.092 99.8521 193.683C101.036 195.246 101.98 196.98 102.652 198.824C104.056 202.686 104.118 206.975 102.961 210.909C102.364 212.94 101.408 214.791 100.327 216.592C100.313 216.575 100.301 216.558 100.289 216.541C100.001 216.159 99.479 216.535 99.77 216.919C99.8364 217.006 99.9005 217.096 99.9669 217.184C99.9584 217.197 99.9512 217.21 99.9439 217.223C99.8473 217.378 100.041 217.579 100.184 217.477C102.821 221.089 104.859 225.212 105.589 229.654C106.281 233.866 105.67 238.263 103.6 242.018C103.057 243 102.417 243.93 101.683 244.778C101.094 245.459 100.406 246.021 99.7519 246.622C99.706 245.197 99.6432 243.776 99.5707 242.363C99.514 241.265 99.4331 240.169 99.3534 239.072C99.322 238.634 98.5176 238.458 98.5382 238.98C98.8618 247.42 99.4415 255.967 97.508 264.274C95.9573 270.936 92.6869 277.364 87.4117 281.824C84.9214 283.929 82.0217 285.524 78.8576 286.332C75.2647 287.25 71.4532 287.099 67.8893 286.12C60.6926 284.143 54.9597 278.864 51.3957 272.402C47.4333 265.218 46.1507 256.917 46.2787 248.792C46.2956 247.76 46.3343 246.729 46.3911 245.699C46.4055 245.432 45.9708 245.28 45.9514 245.591C45.9382 245.807 45.9297 246.023 45.9188 246.239C45.8947 246.191 45.8573 246.148 45.8029 246.131C37.6425 243.421 32.1366 235.757 30.5618 227.492C29.6379 222.64 29.9084 217.599 30.9724 212.792C31.9784 208.244 33.61 203.7 36.372 199.916C39.2813 195.93 43.629 192.812 48.6096 192.244C49.1144 192.186 48.9212 191.401 48.4743 191.448C48.0251 191.495 47.583 191.568 47.1434 191.654C46.5819 190.658 45.9527 189.709 45.4925 188.647C44.9418 187.377 44.5493 186.044 44.3126 184.681C43.8356 181.926 43.9696 179.063 44.7788 176.381C46.3681 171.112 50.5769 167.095 55.7326 165.344C58.5888 164.375 61.6708 164.132 64.6297 164.747C65.085 164.842 65.0717 164.152 64.6792 164.067C64.5053 164.03 64.3302 164.004 64.1563 163.973C63.9232 161.46 64.0826 158.941 64.9219 156.543C65.7854 154.08 67.2951 151.813 69.2914 150.128C73.4616 146.61 79.6848 145.894 84.5965 148.222Z" fill="white"/>
<path d="M125.089 249.523C125.443 249.645 125.682 249.984 125.829 250.313C126.167 251.064 126.187 251.962 125.96 252.748C125.769 253.41 125.181 254.376 124.432 253.694C123.934 253.24 123.63 252.543 123.502 251.851C123.544 251.132 123.571 250.349 124.112 249.815C124.371 249.558 124.729 249.399 125.089 249.523Z" fill="white"/>
<path d="M311.403 275.483C306.323 277.892 303.429 283.164 301.76 288.313C299.891 294.081 299.199 300.249 299.569 306.294C299.941 312.351 301.395 318.334 303.894 323.863C304.212 324.564 304.545 325.26 304.878 325.953C305.068 326.348 304.358 326.901 304.127 326.469C302.469 323.366 301.208 320.024 300.313 316.588C300.302 316.639 300.277 316.69 300.236 316.73C298.798 318.093 297.353 319.354 296.148 320.945C294.964 322.508 294.02 324.242 293.348 326.086C291.944 329.947 291.882 334.237 293.039 338.171C293.636 340.201 294.592 342.053 295.673 343.853C295.687 343.836 295.699 343.819 295.711 343.802C295.999 343.421 296.521 343.796 296.23 344.18C296.164 344.268 296.1 344.357 296.033 344.446C296.042 344.459 296.049 344.471 296.056 344.485C296.153 344.64 295.959 344.841 295.816 344.739C293.179 348.351 291.141 352.474 290.411 356.916C289.719 361.128 290.33 365.525 292.4 369.279C292.943 370.262 293.583 371.191 294.317 372.039C294.906 372.72 295.594 373.283 296.248 373.884C296.294 372.459 296.357 371.037 296.429 369.625C296.486 368.527 296.567 367.43 296.647 366.334C296.678 365.895 297.482 365.72 297.462 366.242C297.138 374.682 296.558 383.229 298.492 391.536C300.043 398.197 303.313 404.625 308.588 409.085C311.079 411.191 313.978 412.786 317.142 413.594C320.735 414.512 324.547 414.361 328.111 413.382C335.307 411.404 341.04 406.125 344.604 399.664C348.567 392.48 349.849 384.179 349.721 376.054C349.704 375.021 349.666 373.99 349.609 372.96C349.594 372.694 350.029 372.541 350.049 372.853C350.062 373.068 350.07 373.285 350.081 373.501C350.105 373.452 350.143 373.41 350.197 373.393C358.358 370.682 363.863 363.019 365.438 354.753C366.362 349.902 366.092 344.86 365.028 340.054C364.022 335.505 362.39 330.961 359.628 327.178C356.719 323.191 352.371 320.074 347.39 319.506C346.886 319.447 347.079 318.662 347.526 318.709C347.975 318.757 348.417 318.829 348.857 318.915C349.418 317.919 350.047 316.971 350.507 315.908C351.058 314.638 351.451 313.306 351.687 311.942C352.164 309.187 352.03 306.324 351.221 303.643C349.632 298.373 345.423 294.357 340.267 292.606C337.411 291.637 334.329 291.393 331.37 292.009C330.915 292.103 330.928 291.414 331.321 291.329C331.495 291.291 331.67 291.266 331.844 291.234C332.077 288.722 331.917 286.203 331.078 283.805C330.215 281.341 328.705 279.075 326.709 277.389C322.538 273.872 316.315 273.156 311.403 275.483Z" fill="white"/>
<path d="M270.911 376.784C270.557 376.907 270.318 377.246 270.171 377.574C269.833 378.325 269.813 379.223 270.04 380.01C270.231 380.671 270.819 381.638 271.568 380.956C272.066 380.502 272.37 379.805 272.498 379.113C272.456 378.393 272.429 377.611 271.888 377.076C271.629 376.819 271.271 376.661 270.911 376.784Z" fill="white"/>
<path d="M84.5965 275.483C89.6773 277.892 92.5709 283.164 94.24 288.313C96.1095 294.081 96.8015 300.249 96.4307 306.294C96.0588 312.351 94.6047 318.334 92.106 323.863C91.7884 324.564 91.455 325.26 91.1217 325.953C90.9321 326.348 91.6422 326.901 91.8729 326.469C93.5311 323.366 94.7919 320.024 95.6868 316.588C95.6977 316.639 95.723 316.69 95.7641 316.73C97.2025 318.093 98.6469 319.354 99.8521 320.945C101.036 322.508 101.98 324.242 102.652 326.086C104.056 329.947 104.118 334.237 102.961 338.171C102.364 340.201 101.408 342.053 100.327 343.853C100.313 343.836 100.301 343.819 100.289 343.802C100.001 343.421 99.479 343.796 99.77 344.18C99.8364 344.268 99.9005 344.357 99.9669 344.446C99.9584 344.459 99.9512 344.471 99.9439 344.485C99.8473 344.64 100.041 344.841 100.184 344.739C102.821 348.351 104.859 352.474 105.589 356.916C106.281 361.128 105.67 365.525 103.6 369.279C103.057 370.262 102.417 371.191 101.683 372.039C101.094 372.72 100.406 373.283 99.7519 373.884C99.706 372.459 99.6432 371.037 99.5707 369.625C99.514 368.527 99.4331 367.43 99.3534 366.334C99.322 365.895 98.5176 365.72 98.5382 366.242C98.8618 374.682 99.4415 383.229 97.508 391.536C95.9573 398.197 92.6869 404.625 87.4117 409.085C84.9214 411.191 82.0217 412.786 78.8576 413.594C75.2647 414.512 71.4532 414.361 67.8893 413.382C60.6926 411.404 54.9597 406.125 51.3957 399.664C47.4333 392.48 46.1507 384.179 46.2787 376.054C46.2956 375.021 46.3343 373.99 46.3911 372.96C46.4055 372.694 45.9708 372.541 45.9514 372.853C45.9382 373.068 45.9297 373.285 45.9188 373.501C45.8947 373.452 45.8573 373.41 45.8029 373.393C37.6425 370.682 32.1366 363.019 30.5618 354.753C29.6379 349.902 29.9084 344.86 30.9724 340.054C31.9784 335.505 33.61 330.961 36.372 327.178C39.2813 323.191 43.629 320.074 48.6096 319.506C49.1144 319.447 48.9212 318.662 48.4743 318.709C48.0251 318.757 47.583 318.829 47.1434 318.915C46.5819 317.919 45.9527 316.971 45.4925 315.908C44.9418 314.638 44.5493 313.306 44.3126 311.942C43.8356 309.187 43.9696 306.324 44.7788 303.643C46.3681 298.373 50.5769 294.357 55.7326 292.606C58.5888 291.637 61.6708 291.393 64.6297 292.009C65.085 292.103 65.0717 291.414 64.6792 291.329C64.5053 291.291 64.3302 291.266 64.1563 291.234C63.9232 288.722 64.0826 286.203 64.9219 283.805C65.7854 281.341 67.2951 279.075 69.2914 277.389C73.4616 273.872 79.6848 273.156 84.5965 275.483Z" fill="white"/>
<path d="M125.089 376.784C125.443 376.907 125.682 377.246 125.829 377.574C126.167 378.325 126.187 379.223 125.96 380.01C125.769 380.671 125.181 381.638 124.432 380.956C123.934 380.502 123.63 379.805 123.502 379.113C123.544 378.393 123.571 377.611 124.112 377.076C124.371 376.819 124.729 376.661 125.089 376.784Z" fill="white"/>
<path d="M216.595 84.7745C214.194 89.8718 208.939 92.7749 203.807 94.4494C198.058 96.325 191.91 97.0193 185.884 96.6473C179.847 96.2741 173.884 94.8153 168.373 92.3084C167.674 91.9898 166.98 91.6554 166.29 91.3209C165.896 91.1307 165.344 91.8432 165.775 92.0746C168.868 93.7382 172.199 95.0031 175.624 95.9009C175.573 95.9118 175.522 95.9373 175.483 95.9785C174.124 97.4215 172.867 98.8706 171.281 100.08C169.723 101.267 167.995 102.215 166.157 102.888C162.308 104.298 158.033 104.359 154.111 103.199C152.087 102.6 150.242 101.64 148.447 100.556C148.464 100.543 148.481 100.531 148.498 100.518C148.878 100.229 148.504 99.7055 148.121 99.9975C148.034 100.064 147.945 100.128 147.857 100.195C147.843 100.186 147.831 100.179 147.818 100.172C147.663 100.075 147.463 100.269 147.564 100.413C143.964 103.058 139.854 105.103 135.427 105.835C131.229 106.529 126.846 105.916 123.104 103.84C122.124 103.296 121.198 102.653 120.352 101.917C119.674 101.325 119.113 100.636 118.514 99.9793C119.935 99.9332 121.351 99.8702 122.759 99.7975C123.854 99.7406 124.947 99.6594 126.039 99.5794C126.477 99.5479 126.652 98.741 126.131 98.7616C117.718 99.0863 109.199 99.6679 100.919 97.7281C94.2795 96.1723 87.8726 92.8912 83.4271 87.5988C81.3281 85.1004 79.7388 82.1913 78.9333 79.0168C78.0178 75.4122 78.1688 71.5883 79.1446 68.0128C81.1156 60.7926 86.3775 55.041 92.8182 51.4655C99.9786 47.4901 108.253 46.2034 116.351 46.3318C117.38 46.3488 118.408 46.3875 119.435 46.4445C119.7 46.459 119.852 46.0228 119.542 46.0034C119.327 45.9901 119.111 45.9816 118.896 45.9707C118.944 45.9465 118.987 45.9089 119.003 45.8544C121.705 37.6674 129.344 32.1436 137.583 30.5636C142.418 29.6367 147.443 29.9081 152.234 30.9756C156.768 31.9849 161.297 33.6218 165.069 36.3928C169.042 39.3116 172.149 43.6735 172.716 48.6703C172.774 49.1767 173.556 48.9829 173.509 48.5346C173.462 48.0838 173.39 47.6404 173.304 47.1993C174.297 46.6359 175.242 46.0047 176.301 45.543C177.567 44.9905 178.896 44.5967 180.254 44.3593C183 43.8807 185.854 44.0152 188.527 44.827C193.779 46.4215 197.783 50.644 199.528 55.8165C200.494 58.682 200.737 61.7741 200.123 64.7426C200.029 65.1994 200.716 65.186 200.801 64.7922C200.838 64.6178 200.864 64.4421 200.895 64.2676C203.4 64.0338 205.91 64.1937 208.301 65.0358C210.756 65.9021 213.015 67.4166 214.695 69.4195C218.201 73.6032 218.915 79.8468 216.595 84.7745Z" fill="white"/>
<path d="M115.623 125.399C115.501 125.754 115.163 125.994 114.836 126.142C114.087 126.481 113.192 126.501 112.408 126.273C111.749 126.082 110.785 125.492 111.465 124.74C111.918 124.241 112.612 123.936 113.302 123.807C114.019 123.85 114.799 123.876 115.332 124.419C115.588 124.68 115.746 125.038 115.623 125.399Z" fill="white"/>
<path d="M216.595 365.65C214.194 360.552 208.939 357.649 203.807 355.975C198.058 354.099 191.91 353.405 185.884 353.777C179.847 354.15 173.884 355.609 168.373 358.116C167.674 358.434 166.98 358.769 166.29 359.103C165.896 359.293 165.344 358.581 165.775 358.349C168.868 356.686 172.199 355.421 175.624 354.523C175.573 354.512 175.522 354.487 175.483 354.446C174.124 353.003 172.867 351.553 171.281 350.344C169.723 349.157 167.995 348.209 166.157 347.536C162.308 346.127 158.033 346.065 154.111 347.225C152.087 347.824 150.242 348.784 148.447 349.868C148.464 349.881 148.481 349.894 148.498 349.906C148.878 350.195 148.504 350.719 148.121 350.427C148.034 350.36 147.945 350.296 147.857 350.229C147.843 350.238 147.831 350.245 147.818 350.252C147.663 350.349 147.463 350.155 147.564 350.011C143.964 347.366 139.854 345.321 135.427 344.589C131.229 343.895 126.846 344.508 123.104 346.585C122.124 347.129 121.198 347.771 120.352 348.507C119.674 349.099 119.113 349.788 118.514 350.445C119.935 350.491 121.351 350.554 122.759 350.627C123.854 350.683 124.947 350.765 126.039 350.845C126.477 350.876 126.652 351.683 126.131 351.662C117.718 351.338 109.199 350.756 100.919 352.696C94.2795 354.252 87.8726 357.533 83.4271 362.825C81.3281 365.324 79.7388 368.233 78.9333 371.407C78.0178 375.012 78.1688 378.836 79.1446 382.411C81.1156 389.631 86.3775 395.383 92.8182 398.959C99.9786 402.934 108.253 404.221 116.351 404.092C117.38 404.075 118.408 404.037 119.435 403.98C119.7 403.965 119.852 404.401 119.542 404.421C119.327 404.434 119.111 404.442 118.896 404.453C118.944 404.478 118.987 404.515 119.003 404.57C121.705 412.757 129.344 418.28 137.583 419.86C142.418 420.787 147.443 420.516 152.234 419.449C156.768 418.439 161.297 416.802 165.069 414.031C169.042 411.112 172.149 406.751 172.716 401.754C172.774 401.247 173.556 401.441 173.509 401.89C173.462 402.34 173.39 402.784 173.304 403.225C174.297 403.788 175.242 404.419 176.301 404.881C177.567 405.434 178.896 405.827 180.254 406.065C183 406.543 185.854 406.409 188.527 405.597C193.779 404.003 197.783 399.78 199.528 394.608C200.494 391.742 200.737 388.65 200.123 385.682C200.029 385.225 200.716 385.238 200.801 385.632C200.838 385.806 200.864 385.982 200.895 386.156C203.4 386.39 205.91 386.23 208.301 385.388C210.756 384.522 213.015 383.007 214.695 381.005C218.201 376.821 218.915 370.577 216.595 365.65Z" fill="white"/>
<path d="M115.623 325.025C115.501 324.67 115.163 324.43 114.836 324.282C114.087 323.943 113.192 323.923 112.408 324.151C111.749 324.343 110.785 324.933 111.465 325.684C111.918 326.183 112.612 326.488 113.302 326.617C114.019 326.574 114.799 326.548 115.332 326.005C115.588 325.744 115.746 325.386 115.623 325.025Z" fill="white"/>
<path d="M311.403 196.426C306.323 194.017 303.429 188.745 301.76 183.596C299.891 177.828 299.198 171.66 299.569 165.615C299.941 159.558 301.395 153.575 303.894 148.047C304.212 147.345 304.545 146.65 304.878 145.956C305.068 145.561 304.358 145.008 304.127 145.44C302.469 148.543 301.208 151.885 300.313 155.321C300.302 155.27 300.277 155.219 300.236 155.179C298.798 153.816 297.353 152.555 296.148 150.964C294.964 149.401 294.02 147.667 293.348 145.823C291.944 141.962 291.882 137.673 293.039 133.738C293.636 131.708 294.592 129.856 295.673 128.056C295.687 128.073 295.699 128.09 295.711 128.107C295.999 128.488 296.521 128.113 296.23 127.729C296.164 127.641 296.1 127.552 296.033 127.463C296.042 127.45 296.049 127.438 296.056 127.425C296.153 127.269 295.959 127.068 295.816 127.17C293.179 123.558 291.141 119.435 290.411 114.993C289.719 110.782 290.33 106.385 292.4 102.63C292.943 101.647 293.583 100.718 294.317 99.8696C294.906 99.1886 295.594 98.6264 296.248 98.0254C296.294 99.4503 296.357 100.872 296.429 102.284C296.486 103.382 296.567 104.479 296.647 105.575C296.678 106.014 297.482 106.189 297.462 105.667C297.138 97.227 296.558 88.6801 298.492 80.3732C300.043 73.7116 303.313 67.2839 308.588 62.8239C311.079 60.7181 313.978 59.1235 317.142 58.3154C320.735 57.397 324.547 57.5484 328.111 58.5274C335.307 60.5048 341.04 65.7839 344.604 72.2455C348.567 79.4293 349.849 87.7302 349.721 95.8554C349.704 96.8877 349.666 97.9188 349.609 98.9487C349.594 99.2153 350.029 99.3679 350.049 99.0565C350.062 98.8409 350.07 98.624 350.081 98.4083C350.105 98.4568 350.143 98.4992 350.197 98.5162C358.357 101.227 363.863 108.89 365.438 117.156C366.362 122.007 366.092 127.049 365.028 131.855C364.022 136.404 362.39 140.948 359.628 144.731C356.719 148.718 352.371 151.835 347.39 152.404C346.886 152.462 347.079 153.247 347.526 153.2C347.975 153.152 348.417 153.08 348.857 152.994C349.418 153.99 350.047 154.938 350.507 156.001C351.058 157.271 351.451 158.603 351.687 159.967C352.164 162.722 352.03 165.585 351.221 168.266C349.632 173.536 345.423 177.552 340.267 179.303C337.411 180.272 334.329 180.516 331.37 179.9C330.915 179.806 330.928 180.495 331.321 180.58C331.495 180.618 331.67 180.643 331.844 180.675C332.077 183.188 331.917 185.706 331.078 188.104C330.215 190.568 328.705 192.835 326.709 194.52C322.538 198.037 316.315 198.753 311.403 196.426Z" fill="white"/>
<path d="M270.911 95.1246C270.557 95.0022 270.318 94.663 270.171 94.3346C269.833 93.5834 269.813 92.6856 270.04 91.8992C270.231 91.2377 270.819 90.2708 271.568 90.9529C272.066 91.4073 272.37 92.104 272.498 92.7958C272.456 93.5155 272.429 94.2983 271.888 94.8326C271.629 95.0895 271.271 95.2482 270.911 95.1246Z" fill="white"/>
<path d="M84.5965 196.426C89.6773 194.017 92.5709 188.745 94.24 183.596C96.1095 177.828 96.8015 171.66 96.4307 165.615C96.0588 159.558 94.6047 153.575 92.106 148.047C91.7884 147.345 91.455 146.65 91.1217 145.956C90.9321 145.561 91.6422 145.008 91.8729 145.44C93.5311 148.543 94.7919 151.885 95.6868 155.321C95.6977 155.27 95.723 155.219 95.7641 155.179C97.2025 153.816 98.6469 152.555 99.8521 150.964C101.036 149.401 101.98 147.667 102.652 145.823C104.056 141.962 104.118 137.673 102.961 133.738C102.364 131.708 101.408 129.856 100.327 128.056C100.313 128.073 100.301 128.09 100.289 128.107C100.001 128.488 99.479 128.113 99.77 127.729C99.8365 127.641 99.9005 127.552 99.9669 127.463C99.9584 127.45 99.9512 127.438 99.9439 127.425C99.8473 127.269 100.041 127.068 100.184 127.17C102.821 123.558 104.859 119.435 105.589 114.993C106.281 110.782 105.67 106.385 103.6 102.63C103.057 101.647 102.417 100.718 101.683 99.8696C101.094 99.1886 100.406 98.6264 99.7519 98.0254C99.706 99.4503 99.6432 100.872 99.5707 102.284C99.514 103.382 99.4331 104.479 99.3534 105.575C99.322 106.014 98.5176 106.189 98.5382 105.667C98.8618 97.227 99.4415 88.6801 97.508 80.3732C95.9573 73.7116 92.6869 67.2839 87.4117 62.8239C84.9214 60.7181 82.0217 59.1235 78.8576 58.3154C75.2647 57.397 71.4532 57.5484 67.8893 58.5274C60.6926 60.5048 54.9597 65.7839 51.3957 72.2455C47.4333 79.4293 46.1507 87.7302 46.2787 95.8554C46.2956 96.8877 46.3343 97.9188 46.3911 98.9487C46.4055 99.2153 45.9708 99.3679 45.9515 99.0565C45.9382 98.8409 45.9297 98.624 45.9188 98.4083C45.8947 98.4568 45.8573 98.4992 45.8029 98.5162C37.6425 101.227 32.1366 108.89 30.5618 117.156C29.6379 122.007 29.9084 127.049 30.9724 131.855C31.9784 136.404 33.61 140.948 36.372 144.731C39.2813 148.718 43.6291 151.835 48.6096 152.404C49.1144 152.462 48.9212 153.247 48.4743 153.2C48.0251 153.152 47.5831 153.08 47.1435 152.994C46.5819 153.99 45.9527 154.938 45.4925 156.001C44.9418 157.271 44.5493 158.603 44.3126 159.967C43.8356 162.722 43.9696 165.585 44.7788 168.266C46.3681 173.536 50.5769 177.552 55.7326 179.303C58.5888 180.272 61.6708 180.516 64.6297 179.9C65.085 179.806 65.0717 180.495 64.6792 180.58C64.5053 180.618 64.3302 180.643 64.1563 180.675C63.9232 183.188 64.0826 185.706 64.9219 188.104C65.7855 190.568 67.2951 192.835 69.2914 194.52C73.4616 198.037 79.6848 198.753 84.5965 196.426Z" fill="white"/>
<path d="M125.089 95.1246C125.443 95.0022 125.682 94.663 125.829 94.3346C126.167 93.5834 126.187 92.6856 125.96 91.8992C125.769 91.2377 125.181 90.2708 124.432 90.9529C123.934 91.4073 123.63 92.104 123.502 92.7958C123.544 93.5155 123.571 94.2983 124.112 94.8326C124.371 95.0895 124.729 95.2482 125.089 95.1246Z" fill="white"/>
<rect x="78" y="76" width="228" height="284" fill="white"/>
<path d="M306 139L78 139" stroke="#E9EBF8"/>
<path d="M306 297L78 297" stroke="#E9EBF8"/>
</g>
<defs>
<filter id="filter0_d_108_919" x="0" y="0" width="396" height="450.424" filterUnits="userSpaceOnUse" color-interpolation-filters="sRGB">
<feFlood flood-opacity="0" result="BackgroundImageFix"/>
<feColorMatrix in="SourceAlpha" type="matrix" values="0 0 0 0 0 0 0 0 0 0 0 0 0 0 0 0 0 0 127 0" result="hardAlpha"/>
<feOffset/>
<feGaussianBlur stdDeviation="15"/>
<feComposite in2="hardAlpha" operator="out"/>
<feColorMatrix type="matrix" values="0 0 0 0 0 0 0 0 0 0 0 0 0 0 0 0 0 0 0.06 0"/>
<feBlend mode="normal" in2="BackgroundImageFix" result="effect1_dropShadow_108_919"/>
<feBlend mode="normal" in="SourceGraphic" in2="effect1_dropShadow_108_919" result="shape"/>
</filter>
</defs>
</svg>
