<svg width="1440" height="1384" viewBox="0 0 1440 1384" fill="none" xmlns="http://www.w3.org/2000/svg">
<rect width="1440" height="1351" fill="white"/>
<path d="M1178.86 103.968C1067 143.8 1005.68 59.7561 881.731 99.5878C820.845 119.137 764.841 112.388 722 102.11V7.62939e-06H1440V122.359C1364.51 139.283 1280.03 67.9372 1178.86 103.968Z" fill="#FCF7EE"/>
<path d="M262.591 103.968C375.079 143.8 436.738 59.7561 561.379 99.5878C622.605 119.137 678.921 112.388 722 102.11V7.62939e-06H0V122.359C75.9062 139.283 160.862 67.9372 262.591 103.968Z" fill="#FCF7EE"/>
<path d="M1178.86 1362.97C1067 1402.8 1005.68 1318.76 881.731 1358.59C820.845 1378.14 764.841 1371.39 722 1361.11V1259H1440V1381.36C1364.51 1398.28 1280.03 1326.94 1178.86 1362.97Z" fill="white"/>
<path d="M262.591 1362.97C375.079 1402.8 436.738 1318.76 561.379 1358.59C622.605 1378.14 678.921 1371.39 722 1361.11V1259H0V1381.36C75.9062 1398.28 160.862 1326.94 262.591 1362.97Z" fill="white"/>
</svg>
