<svg width="204" height="140" viewBox="0 0 204 140" fill="none" xmlns="http://www.w3.org/2000/svg">
<path d="M3.4901 58.797C7.71326 52.3816 15.8231 48.5824 23.4642 49.4854C24.2213 49.5747 24.9612 49.7635 25.6891 49.9901C24.4342 42.428 26.7999 34.428 31.8591 28.6735C37.3595 22.4178 45.7285 19.5354 53.9482 20.55C56.2589 20.8349 58.5456 21.4358 60.6984 22.3216C62.355 23.0032 64.1954 23.8753 65.6185 25.0787C66.8529 19.6847 70.0185 14.8693 74.1558 11.1869C79.3833 6.53458 86.0219 3.72086 92.7326 1.9801C106.121 -1.49456 121.321 -0.873108 132.722 7.70367C138.095 11.7449 142.339 17.3036 144.145 23.8306C144.169 23.9165 144.152 23.9783 144.114 24.0177C155.723 23.4306 167.659 24.5723 178.332 29.434C188.083 33.8752 196.636 41.379 200.809 51.4082C202.897 56.4244 203.92 61.9248 203.453 67.3549C203.024 72.3402 201.285 77.1265 198.559 81.3119C193.202 89.535 184.409 95.341 175.163 98.3178C165.558 101.41 155.415 101.856 145.373 101.578C144.755 102.656 143.845 103.576 142.957 104.431C141.852 105.497 140.631 106.441 139.331 107.26C138.075 108.052 136.746 108.723 135.371 109.281C136.31 109.221 137.254 109.231 138.197 109.327C139.986 109.507 141.919 109.877 143.479 110.814C144.746 111.576 145.702 112.867 145.44 114.41C145.165 116.022 143.749 117.224 142.425 118.034C138.921 120.184 134.77 121.379 130.676 121.586C127.529 121.744 123.496 121.485 121.52 118.635C120.446 117.087 120.324 114.967 121.232 113.312C121.761 112.345 122.598 111.653 123.565 111.241C119.38 111.047 115.235 109.998 111.363 108.342C107.974 106.891 104.793 104.989 101.83 102.802C99.7008 104.604 97.136 105.89 94.5197 106.819C91.5978 107.856 88.4974 108.441 85.3953 108.477C79.3919 108.548 73.4726 106.646 68.5645 103.2C65.9602 101.374 63.2632 98.9564 61.792 96.0878C61.7233 95.9539 61.7439 95.8491 61.8074 95.7787C57.943 96.7693 53.998 97.4388 50.0701 97.8062C40.9697 98.6543 31.7063 97.8079 22.9338 95.2277C15.1467 92.9358 7.16563 88.9359 2.90471 81.7033C-1.1794 74.7643 -0.93219 65.5163 3.4901 58.797Z" fill="#AAAAAA"/>
<path d="M122.283 118.338C123.995 120.733 127.565 120.91 130.226 120.819C133.672 120.699 137.081 119.856 140.189 118.361C141.595 117.684 143.09 116.888 144.055 115.619C145.059 114.299 144.958 112.695 143.631 111.646C142.214 110.529 140.201 110.153 138.456 109.93C136.844 109.724 135.217 109.719 133.61 109.919C132.699 110.215 131.775 110.469 130.838 110.668C129.384 110.977 127.917 111.157 126.45 111.231C126.477 111.425 126.393 111.612 126.144 111.602C122.693 111.461 120.166 115.375 122.283 118.338Z" fill="white"/>
<path d="M122.584 113.185C122.608 113.446 122.654 113.705 122.743 113.955C123.825 116.968 128.475 117.185 131.128 116.975C132.575 116.86 134.038 116.585 135.442 116.225C136.971 115.834 138.717 115.272 139.845 114.107C140.872 113.046 141.104 111.475 140.347 110.246C141.535 110.507 142.71 110.917 143.631 111.645C144.958 112.692 145.059 114.297 144.055 115.617C143.09 116.886 141.595 117.681 140.189 118.359C137.081 119.854 133.674 120.697 130.226 120.817C127.565 120.91 123.995 120.733 122.283 118.337C121.049 116.611 121.399 114.567 122.584 113.185Z" fill="#EDEDED"/>
<path d="M4.39139 79.4183C7.80424 86.6405 15.2737 90.7538 22.5698 93.1264C30.7415 95.7839 39.4813 96.7675 48.0461 96.2405C56.628 95.7117 65.1052 93.6448 72.9387 90.0929C73.9327 89.6414 74.9181 89.1676 75.9 88.6938C76.4597 88.4242 77.2442 89.4337 76.6314 89.7616C72.2348 92.1186 67.5001 93.9109 62.6314 95.183C62.7035 95.1984 62.7756 95.2345 62.8323 95.2929C64.7636 97.3375 66.5507 99.3907 68.8048 101.104C71.0194 102.786 73.476 104.129 76.0889 105.083C81.5601 107.08 87.6373 107.167 93.2115 105.523C96.0888 104.675 98.7119 103.315 101.263 101.779C101.239 101.76 101.215 101.743 101.191 101.725C100.65 101.315 101.182 100.574 101.727 100.987C101.85 101.082 101.977 101.173 102.102 101.267C102.121 101.255 102.139 101.245 102.157 101.234C102.377 101.097 102.662 101.372 102.518 101.576C107.635 105.324 113.478 108.222 119.771 109.258C125.738 110.242 131.968 109.373 137.289 106.431C138.681 105.66 139.998 104.75 141.199 103.707C142.164 102.869 142.961 101.892 143.812 100.962C141.793 100.896 139.78 100.807 137.778 100.704C136.222 100.623 134.669 100.508 133.115 100.395C132.494 100.35 132.245 99.207 132.985 99.2362C144.943 99.6963 157.053 100.52 168.823 97.7718C178.262 95.5676 187.369 90.9186 193.688 83.42C196.672 79.8801 198.931 75.7582 200.076 71.2604C201.377 66.1531 201.163 60.7351 199.776 55.669C196.974 45.4391 189.494 37.2897 180.339 32.2237C170.16 26.5911 158.399 24.7679 146.887 24.9499C145.424 24.9739 143.963 25.0289 142.504 25.1095C142.126 25.1301 141.91 24.5121 142.351 24.4847C142.657 24.4658 142.964 24.4538 143.27 24.4383C143.201 24.404 143.141 24.3508 143.117 24.2735C139.277 12.6736 128.418 4.84699 116.707 2.60838C109.833 1.29508 102.69 1.67962 95.8793 3.19206C89.4347 4.6221 82.997 6.9414 77.6356 10.8676C71.9876 15.0032 67.5705 21.1834 66.7653 28.2632C66.6829 28.9808 65.5705 28.7061 65.6374 28.0709C65.7044 27.4323 65.8074 26.804 65.9293 26.1791C64.5181 25.3808 63.1739 24.4864 61.6683 23.8323C59.8692 23.0495 57.9808 22.4915 56.0495 22.1551C52.1456 21.4769 48.089 21.6675 44.2899 22.8177C36.8238 25.0769 31.1329 31.0597 28.6522 38.3885C27.2788 42.4485 26.9338 46.8296 27.8059 51.0356C27.9398 51.6828 26.963 51.6639 26.8428 51.106C26.7896 50.8588 26.7535 50.6098 26.7089 50.3626C23.1484 50.0313 19.5793 50.2579 16.1819 51.451C12.6918 52.6785 9.47978 54.8244 7.09181 57.6622C2.10814 63.59 1.09355 72.4363 4.39139 79.4183Z" fill="white"/>
<path d="M7.09525 57.6622C9.3699 54.9583 12.3965 52.8914 15.696 51.6416C13.6033 54.0845 12.1235 57.0596 11.4986 60.4244C8.69695 75.5179 22.6007 84.6492 35.538 87.3015C49.6581 90.1976 67.016 88.5496 78.918 79.7376C81.1549 82.8878 84.0013 85.4354 88.1369 86.2698C93.3987 87.3307 99.663 85.1796 103.225 80.9925C112.089 91.0749 133.771 85.9504 131.888 71.6879C139.776 75.3136 148.497 76.7333 157.165 75.6157C165.556 74.5325 173.597 71.2896 180.504 66.4175C186.069 62.4913 192.011 56.8467 191.935 49.5026C191.879 44.1189 188.772 39.106 184.926 35.1353C191.941 40.1824 197.458 47.2124 199.776 55.6691C201.163 60.7351 201.377 66.1514 200.076 71.2604C198.931 75.7582 196.672 79.8801 193.688 83.42C187.369 90.9187 178.263 95.5676 168.823 97.7718C157.053 100.52 144.943 99.6963 132.985 99.2362C132.245 99.2087 132.492 100.35 133.115 100.395C134.669 100.508 136.222 100.623 137.778 100.704C139.781 100.807 141.795 100.896 143.812 100.962C142.961 101.892 142.164 102.869 141.199 103.707C139.998 104.75 138.681 105.66 137.289 106.431C131.97 109.375 125.738 110.242 119.771 109.258C113.476 108.222 107.635 105.324 102.518 101.576C102.662 101.372 102.377 101.097 102.157 101.234C102.139 101.246 102.121 101.257 102.102 101.267C101.977 101.174 101.85 101.082 101.727 100.987C101.182 100.574 100.65 101.313 101.191 101.725C101.215 101.744 101.239 101.762 101.263 101.779C98.7119 103.315 96.0888 104.673 93.2115 105.523C87.6373 107.167 81.5601 107.08 76.0889 105.083C73.476 104.131 71.0194 102.786 68.8048 101.104C66.549 99.3907 64.7636 97.3375 62.8323 95.2929C62.7756 95.2328 62.7035 95.1985 62.6314 95.183C67.5001 93.9109 72.2365 92.1186 76.6314 89.7616C77.2442 89.432 76.4597 88.4225 75.9 88.6938C74.9163 89.1693 73.9327 89.6431 72.9387 90.0929C65.1035 93.6448 56.628 95.7118 48.0461 96.2405C39.4813 96.7675 30.7398 95.7839 22.5698 93.1264C15.2755 90.7538 7.80424 86.6406 4.39139 79.4183C1.09355 72.4363 2.10814 63.59 7.09525 57.6622Z" fill="#EDEDED"/>
<path d="M142.77 124.92C142.843 124.927 142.922 124.992 142.967 125.071C144.818 124.697 146.737 124.689 148.589 125.095C150.152 125.441 153.058 126.489 152.277 128.661C151.964 129.53 151.07 130.038 150.249 130.337C149.044 130.776 147.691 130.96 146.421 131.077C144.191 131.279 140.888 131.447 139.407 129.392C137.702 127.029 140.377 124.726 142.77 124.92Z" fill="#AAAAAA"/>
<path d="M140.006 129.021C141.218 130.726 144.177 130.46 145.999 130.35C147.092 130.283 148.191 130.139 149.257 129.887C150.018 129.706 150.9 129.421 151.406 128.788C152.958 126.85 149.382 125.76 148.127 125.5C146.246 125.111 144.318 125.135 142.455 125.54C141.776 125.796 141.044 125.904 140.445 126.371C139.585 127.042 139.355 128.106 140.006 129.021Z" fill="white"/>
<path d="M140.445 126.371C140.78 126.11 141.156 125.964 141.541 125.839C141.146 126.35 141.129 126.965 141.424 127.559C141.726 128.165 142.368 128.719 143.005 128.949C143.673 129.19 144.385 129.239 145.089 129.193C145.822 129.143 146.562 128.999 147.259 128.771C147.851 128.577 148.481 128.3 148.943 127.871C149.468 127.382 149.733 126.644 149.619 125.94C151.022 126.467 152.509 127.415 151.405 128.791C150.898 129.425 150.016 129.71 149.256 129.89C148.189 130.142 147.091 130.287 145.997 130.354C144.176 130.463 141.216 130.731 140.004 129.025C139.355 128.106 139.585 127.04 140.445 126.371Z" fill="#EDEDED"/>
<path d="M147.415 135.823C148.037 134.148 149.985 134.053 151.487 134.275C151.578 134.289 151.649 134.361 151.683 134.441C152.564 134.611 153.402 134.992 154.064 135.598C154.518 136.012 154.857 136.594 154.696 137.224C154.548 137.804 154.028 138.216 153.518 138.476C152.184 139.152 150.545 139.181 149.156 138.659C147.996 138.225 146.924 137.15 147.415 135.823Z" fill="#AAAAAA"/>
<path d="M147.922 136.979C148.095 137.482 148.576 137.822 149.041 138.031C150.106 138.512 151.378 138.539 152.492 138.216C153.429 137.945 154.799 137.109 153.833 136.045C153.189 135.337 152.202 134.905 151.222 134.723C150.202 134.783 149.093 134.821 148.336 135.59C147.972 135.959 147.747 136.467 147.922 136.979Z" fill="white"/>
<path d="M148.336 135.592C148.464 135.461 148.605 135.36 148.751 135.267C148.722 135.394 148.712 135.523 148.72 135.645C148.743 135.916 148.839 136.198 148.99 136.424C149.189 136.723 149.417 136.972 149.7 137.195C149.896 137.349 150.112 137.492 150.348 137.58C150.646 137.691 150.906 137.748 151.227 137.76C151.446 137.768 151.663 137.722 151.876 137.671C152.03 137.633 152.179 137.576 152.318 137.502C152.509 137.403 152.7 137.289 152.866 137.15C153.026 137.018 153.156 136.86 153.282 136.695C153.361 136.591 153.426 136.477 153.472 136.354C153.539 136.174 153.575 136.007 153.589 135.828C153.67 135.901 153.761 135.964 153.833 136.045C154.799 137.109 153.429 137.943 152.492 138.216C151.378 138.539 150.106 138.512 149.041 138.031C148.576 137.822 148.095 137.482 147.922 136.979C147.747 136.467 147.972 135.959 148.336 135.592Z" fill="#EDEDED"/>
<path d="M80.2419 45.192C78.5553 45.192 77.0959 44.9573 75.8639 44.488C74.6466 44.0187 73.7079 43.3293 73.0479 42.42C72.3879 41.5107 72.0579 40.396 72.0579 39.076C72.0579 38.548 72.1093 38.0127 72.2119 37.47C72.3293 36.9273 72.4979 36.4287 72.7179 35.974C72.9379 35.5193 73.2166 35.1527 73.5539 34.874C73.8913 34.5807 74.2873 34.434 74.7419 34.434C75.1086 34.434 75.4093 34.5147 75.6439 34.676C75.8933 34.8373 76.0839 35.0207 76.2159 35.226C76.3479 35.4313 76.4139 35.6147 76.4139 35.776C75.9739 36.0987 75.6146 36.4947 75.3359 36.964C75.0573 37.4187 74.9179 38.1007 74.9179 39.01C74.9179 39.406 74.9693 39.824 75.0719 40.264C75.1746 40.7187 75.4019 41.1367 75.7539 41.518C76.1059 41.914 76.6339 42.2367 77.3379 42.486C78.0566 42.7353 79.0173 42.86 80.2199 42.86C81.2466 42.86 82.0973 42.7647 82.7719 42.574C83.4466 42.398 83.9746 42.156 84.3559 41.848C84.7519 41.5547 85.0306 41.2247 85.1919 40.858C85.3533 40.506 85.4339 40.154 85.4339 39.802L88.2939 39.582C88.2939 40.7993 87.9566 41.826 87.2819 42.662C86.6073 43.498 85.6613 44.1287 84.4439 44.554C83.2413 44.9793 81.8406 45.192 80.2419 45.192ZM85.1259 40C84.4659 40 83.9526 39.8973 83.5859 39.692C83.2339 39.4867 82.9846 39.23 82.8379 38.922C82.7059 38.5993 82.6619 38.262 82.7059 37.91C82.7499 37.5433 82.8453 37.206 82.9919 36.898C83.1533 37.0593 83.4173 37.228 83.7839 37.404C84.1506 37.58 84.5906 37.668 85.1039 37.668H90.9339V40H85.1259ZM90.9339 40V37.668C91.0953 37.668 91.2053 37.778 91.2639 37.998C91.3373 38.2033 91.3739 38.482 91.3739 38.834C91.3739 39.186 91.3373 39.472 91.2639 39.692C91.2053 39.8973 91.0953 40 90.9339 40ZM81.9579 49.482C81.5766 49.482 81.2393 49.3427 80.9459 49.064C80.6673 48.7853 80.5279 48.448 80.5279 48.052C80.5279 47.656 80.6673 47.3187 80.9459 47.04C81.2393 46.7613 81.5766 46.622 81.9579 46.622C82.3686 46.622 82.7059 46.7613 82.9699 47.04C83.2486 47.3187 83.3879 47.656 83.3879 48.052C83.3879 48.448 83.2486 48.7853 82.9699 49.064C82.7059 49.3427 82.3686 49.482 81.9579 49.482ZM78.3939 49.482C78.0126 49.482 77.6753 49.3427 77.3819 49.064C77.1033 48.7853 76.9639 48.448 76.9639 48.052C76.9639 47.656 77.1033 47.3187 77.3819 47.04C77.6753 46.7613 78.0126 46.622 78.3939 46.622C78.7899 46.622 79.1273 46.7613 79.4059 47.04C79.6846 47.3187 79.8239 47.656 79.8239 48.052C79.8239 48.448 79.6846 48.7853 79.4059 49.064C79.1273 49.3427 78.7899 49.482 78.3939 49.482ZM90.9307 40V37.668H92.9547C93.116 37.668 93.27 37.624 93.4167 37.536C93.5633 37.448 93.7027 37.3233 93.8347 37.162C93.9667 36.986 94.0767 36.766 94.1647 36.502C94.2673 36.2233 94.3407 35.9007 94.3847 35.534C94.4433 35.1527 94.4727 34.7273 94.4727 34.258C94.4727 33.5393 94.4067 32.9673 94.2747 32.542C94.1573 32.1167 93.9887 31.772 93.7687 31.508C93.5487 31.244 93.2847 31.002 92.9767 30.782C92.9767 30.6207 93.0353 30.4373 93.1527 30.232C93.2847 30.0267 93.4753 29.8433 93.7247 29.682C93.9887 29.5207 94.304 29.44 94.6707 29.44C95.1253 29.44 95.5213 29.572 95.8587 29.836C96.196 30.1 96.4673 30.4593 96.6727 30.914C96.8927 31.354 97.054 31.8673 97.1567 32.454C97.274 33.026 97.3327 33.6347 97.3327 34.28C97.3327 36.0547 96.9513 37.4553 96.1887 38.482C95.426 39.494 94.348 40 92.9547 40H90.9307ZM90.9307 40C90.784 40 90.674 39.8973 90.6007 39.692C90.5273 39.472 90.4907 39.186 90.4907 38.834C90.4907 38.482 90.5273 38.2033 90.6007 37.998C90.674 37.778 90.784 37.668 90.9307 37.668V40ZM96.4527 27.9C96.0713 27.9 95.734 27.7607 95.4407 27.482C95.162 27.2033 95.0227 26.866 95.0227 26.47C95.0227 26.074 95.162 25.7367 95.4407 25.458C95.734 25.1793 96.0713 25.04 96.4527 25.04C96.8633 25.04 97.2007 25.1793 97.4647 25.458C97.7433 25.7367 97.8827 26.074 97.8827 26.47C97.8827 26.866 97.7433 27.2033 97.4647 27.482C97.2007 27.7607 96.8633 27.9 96.4527 27.9ZM92.8887 27.9C92.5073 27.9 92.17 27.7607 91.8767 27.482C91.598 27.2033 91.4587 26.866 91.4587 26.47C91.4587 26.074 91.598 25.7367 91.8767 25.458C92.17 25.1793 92.5073 25.04 92.8887 25.04C93.2847 25.04 93.622 25.1793 93.9007 25.458C94.1793 25.7367 94.3187 26.074 94.3187 26.47C94.3187 26.866 94.1793 27.2033 93.9007 27.482C93.622 27.7607 93.2847 27.9 92.8887 27.9ZM102.314 40C101.772 40 101.398 39.846 101.192 39.538C100.987 39.2153 100.884 38.8707 100.884 38.504V28.714C100.884 28.186 100.818 27.8047 100.686 27.57C100.554 27.3353 100.408 27.1813 100.246 27.108C100.085 27.0347 99.9605 26.976 99.8725 26.932C99.8725 26.8147 99.9238 26.6387 100.026 26.404C100.144 26.1693 100.327 25.9567 100.576 25.766C100.84 25.5753 101.192 25.48 101.632 25.48C102.058 25.48 102.424 25.5973 102.732 25.832C103.055 26.052 103.304 26.36 103.48 26.756C103.656 27.152 103.744 27.6067 103.744 28.12V38.548C103.744 38.8853 103.642 39.2153 103.436 39.538C103.231 39.846 102.857 40 102.314 40ZM106.965 45.038C106.598 45.038 106.29 44.9573 106.041 44.796C105.791 44.6347 105.601 44.444 105.469 44.224C105.351 44.0187 105.293 43.8427 105.293 43.696C105.601 43.4613 105.865 43.1973 106.085 42.904C106.305 42.6107 106.473 42.2293 106.591 41.76C106.723 41.3053 106.789 40.7187 106.789 40V30.804C106.789 30.3787 106.921 30.0487 107.185 29.814C107.463 29.5647 107.808 29.44 108.219 29.44C108.644 29.44 108.989 29.5647 109.253 29.814C109.517 30.0487 109.649 30.3787 109.649 30.804V40C109.649 40.6453 109.59 41.2687 109.473 41.87C109.37 42.4713 109.209 43.0067 108.989 43.476C108.783 43.96 108.512 44.3413 108.175 44.62C107.837 44.8987 107.434 45.038 106.965 45.038ZM117.023 40C116.172 40 115.395 39.7947 114.691 39.384C113.987 38.9587 113.43 38.35 113.019 37.558C112.608 36.766 112.403 35.8127 112.403 34.698C112.403 33.0407 112.865 31.75 113.789 30.826C114.728 29.902 115.982 29.44 117.551 29.44C118.71 29.44 119.648 29.6747 120.367 30.144C121.1 30.5987 121.467 31.178 121.467 31.882V40H118.607V31.882C118.504 31.8527 118.358 31.8307 118.167 31.816C117.976 31.7867 117.771 31.772 117.551 31.772C116.788 31.772 116.216 31.9993 115.835 32.454C115.454 32.9087 115.263 33.6567 115.263 34.698C115.263 35.6367 115.432 36.37 115.769 36.898C116.121 37.4113 116.634 37.668 117.309 37.668H121.467V40H117.023ZM118.783 45.038C118.416 45.038 118.108 44.9573 117.859 44.796C117.61 44.6347 117.419 44.444 117.287 44.224C117.17 44.0187 117.111 43.8427 117.111 43.696C117.419 43.4613 117.683 43.1973 117.903 42.904C118.123 42.6107 118.292 42.2293 118.409 41.76C118.541 41.3053 118.607 40.7187 118.607 40V37.668H121.467V40C121.467 40.6453 121.408 41.2687 121.291 41.87C121.188 42.4713 121.027 43.0067 120.807 43.476C120.602 43.96 120.33 44.3413 119.993 44.62C119.656 44.8987 119.252 45.038 118.783 45.038ZM125.669 40C125.376 40 125.097 39.9193 124.833 39.758C124.569 39.582 124.437 39.274 124.437 38.834C124.437 38.394 124.569 38.0933 124.833 37.932C125.097 37.756 125.376 37.668 125.669 37.668H127.781C128.529 37.668 129.101 37.4113 129.497 36.898C129.893 36.37 130.091 35.644 130.091 34.72C130.091 34.0307 129.996 33.466 129.805 33.026C129.629 32.586 129.409 32.2413 129.145 31.992C128.896 31.7427 128.661 31.5667 128.441 31.464L128.837 31.552C128.69 31.4933 128.5 31.508 128.265 31.596C128.045 31.684 127.84 31.86 127.649 32.124C127.473 32.388 127.385 32.762 127.385 33.246C127.224 33.3047 127.004 33.3707 126.725 33.444C126.461 33.5173 126.219 33.554 125.999 33.554C125.618 33.554 125.258 33.422 124.921 33.158C124.598 32.894 124.437 32.4833 124.437 31.926C124.437 31.4127 124.584 30.9947 124.877 30.672C125.17 30.3347 125.522 30.078 125.933 29.902C126.358 29.726 126.769 29.6087 127.165 29.55C127.561 29.4767 127.862 29.44 128.067 29.44C128.463 29.44 128.932 29.5353 129.475 29.726C130.018 29.9167 130.553 30.2247 131.081 30.65C131.624 31.0607 132.071 31.6107 132.423 32.3C132.775 32.9747 132.951 33.8107 132.951 34.808C132.951 35.952 132.702 36.9127 132.203 37.69C131.719 38.4527 131.081 39.032 130.289 39.428C129.512 39.8093 128.676 40 127.781 40H125.669ZM66.7173 69C65.8667 69 65.0893 68.7947 64.3853 68.384C63.6813 67.9587 63.124 67.35 62.7133 66.558C62.3027 65.766 62.0973 64.8127 62.0973 63.698C62.0973 62.0407 62.5593 60.75 63.4833 59.826C64.422 58.902 65.676 58.44 67.2453 58.44C68.404 58.44 69.3427 58.6747 70.0613 59.144C70.7947 59.5987 71.1613 60.178 71.1613 60.882V69H68.3013V60.882C68.1987 60.8527 68.052 60.8307 67.8613 60.816C67.6707 60.7867 67.4653 60.772 67.2453 60.772C66.4827 60.772 65.9107 60.9993 65.5293 61.454C65.148 61.9087 64.9573 62.6567 64.9573 63.698C64.9573 64.6367 65.126 65.37 65.4633 65.898C65.8153 66.4113 66.3287 66.668 67.0033 66.668H72.5473V69H66.7173ZM72.5473 69V66.668C72.7087 66.668 72.8187 66.778 72.8773 66.998C72.9507 67.2033 72.9873 67.482 72.9873 67.834C72.9873 68.186 72.9507 68.472 72.8773 68.692C72.8187 68.8973 72.7087 69 72.5473 69ZM68.4553 56.9C68.074 56.9 67.7367 56.7607 67.4433 56.482C67.1647 56.2033 67.0253 55.866 67.0253 55.47C67.0253 55.074 67.1647 54.7367 67.4433 54.458C67.7367 54.1793 68.074 54.04 68.4553 54.04C68.866 54.04 69.2033 54.1793 69.4673 54.458C69.746 54.7367 69.8853 55.074 69.8853 55.47C69.8853 55.866 69.746 56.2033 69.4673 56.482C69.2033 56.7607 68.866 56.9 68.4553 56.9ZM64.8913 56.9C64.51 56.9 64.1727 56.7607 63.8793 56.482C63.6007 56.2033 63.4613 55.866 63.4613 55.47C63.4613 55.074 63.6007 54.7367 63.8793 54.458C64.1727 54.1793 64.51 54.04 64.8913 54.04C65.2873 54.04 65.6247 54.1793 65.9033 54.458C66.182 54.7367 66.3213 55.074 66.3213 55.47C66.3213 55.866 66.182 56.2033 65.9033 56.482C65.6247 56.7607 65.2873 56.9 64.8913 56.9ZM72.5508 69V66.668H73.6728C74.0101 66.668 74.2814 66.5727 74.4868 66.382C74.7068 66.1913 74.8681 65.9493 74.9708 65.656C75.0734 65.348 75.1248 65.0473 75.1248 64.754V59.892C75.1248 59.5547 75.2274 59.232 75.4328 58.924C75.6381 58.6013 76.0121 58.44 76.5548 58.44C77.0974 58.44 77.4714 58.6013 77.6768 58.924C77.8821 59.232 77.9848 59.5547 77.9848 59.892V64.754C77.9848 65.5607 77.7941 66.2867 77.4128 66.932C77.0461 67.5773 76.5401 68.0833 75.8948 68.45C75.2494 68.8167 74.5088 69 73.6728 69H72.5508ZM79.4368 69C78.6154 69 77.8748 68.8167 77.2148 68.45C76.5694 68.0833 76.0561 67.5773 75.6748 66.932C75.3081 66.2867 75.1248 65.5607 75.1248 64.754H77.9848C77.9848 65.0473 78.0361 65.348 78.1388 65.656C78.2414 65.9493 78.4028 66.1913 78.6228 66.382C78.8428 66.5727 79.1141 66.668 79.4368 66.668H80.5588V69H79.4368ZM80.5588 69V66.668C80.7201 66.668 80.8301 66.778 80.8888 66.998C80.9621 67.2033 80.9988 67.482 80.9988 67.834C80.9988 68.186 80.9621 68.472 80.8888 68.692C80.8301 68.8973 80.7201 69 80.5588 69ZM72.5508 69C72.4041 69 72.2941 68.8973 72.2208 68.692C72.1474 68.472 72.1108 68.186 72.1108 67.834C72.1108 67.482 72.1474 67.2033 72.2208 66.998C72.2941 66.778 72.4041 66.668 72.5508 66.668V69ZM78.3368 73.73C77.9554 73.73 77.6181 73.5907 77.3248 73.312C77.0461 73.0333 76.9068 72.696 76.9068 72.3C76.9068 71.904 77.0461 71.5667 77.3248 71.288C77.6181 71.0093 77.9554 70.87 78.3368 70.87C78.7474 70.87 79.0848 71.0093 79.3488 71.288C79.6274 71.5667 79.7668 71.904 79.7668 72.3C79.7668 72.696 79.6274 73.0333 79.3488 73.312C79.0848 73.5907 78.7474 73.73 78.3368 73.73ZM74.7728 73.73C74.3914 73.73 74.0541 73.5907 73.7608 73.312C73.4821 73.0333 73.3428 72.696 73.3428 72.3C73.3428 71.904 73.4821 71.5667 73.7608 71.288C74.0541 71.0093 74.3914 70.87 74.7728 70.87C75.1688 70.87 75.5061 71.0093 75.7848 71.288C76.0634 71.5667 76.2028 71.904 76.2028 72.3C76.2028 72.696 76.0634 73.0333 75.7848 73.312C75.5061 73.5907 75.1688 73.73 74.7728 73.73ZM92.4665 69C91.6451 69 90.9045 68.8167 90.2445 68.45C89.5991 68.0833 89.0858 67.5773 88.7045 66.932C88.3378 66.2867 88.1545 65.5607 88.1545 64.754V63.786H91.0145V64.754C91.0145 65.0473 91.0658 65.348 91.1685 65.656C91.2711 65.9493 91.4325 66.1913 91.6525 66.382C91.8725 66.5727 92.1438 66.668 92.4665 66.668H93.5885V69H92.4665ZM80.5645 69V66.668H86.1085C86.7831 66.668 87.2891 66.4113 87.6265 65.898C87.9785 65.37 88.1545 64.6367 88.1545 63.698C88.1545 62.6567 87.9638 61.9087 87.5825 61.454C87.2011 60.9993 86.6291 60.772 85.8665 60.772C85.6465 60.772 85.4411 60.7867 85.2505 60.816C85.0598 60.8307 84.9131 60.8527 84.8105 60.882V69H81.9505V60.882C81.9505 60.178 82.3098 59.5987 83.0285 59.144C83.7618 58.6747 84.7078 58.44 85.8665 58.44C87.4358 58.44 88.6825 58.902 89.6065 59.826C90.5451 60.75 91.0145 62.0407 91.0145 63.698C91.0145 64.8127 90.8091 65.766 90.3985 66.558C89.9878 67.35 89.4305 67.9587 88.7265 68.384C88.0371 68.7947 87.2598 69 86.3945 69H80.5645ZM80.5645 69C80.4178 69 80.3078 68.8973 80.2345 68.692C80.1611 68.472 80.1245 68.186 80.1245 67.834C80.1245 67.482 80.1611 67.2033 80.2345 66.998C80.3078 66.778 80.4178 66.668 80.5645 66.668V69ZM93.5885 69V66.668C93.7498 66.668 93.8598 66.778 93.9185 66.998C93.9918 67.2033 94.0285 67.482 94.0285 67.834C94.0285 68.186 93.9918 68.472 93.9185 68.692C93.8598 68.8973 93.7498 69 93.5885 69ZM93.584 69V66.668H94.706C95.0433 66.668 95.3147 66.5727 95.52 66.382C95.74 66.1913 95.9013 65.9493 96.004 65.656C96.1067 65.348 96.158 65.0473 96.158 64.754V59.892C96.158 59.5547 96.2607 59.232 96.466 58.924C96.6713 58.6013 97.0453 58.44 97.588 58.44C98.1307 58.44 98.5047 58.6013 98.71 58.924C98.9153 59.232 99.018 59.5547 99.018 59.892V64.754C99.018 65.5607 98.8273 66.2867 98.446 66.932C98.0793 67.5773 97.5733 68.0833 96.928 68.45C96.2827 68.8167 95.542 69 94.706 69H93.584ZM100.47 69C99.6487 69 98.908 68.8167 98.248 68.45C97.6027 68.0833 97.0893 67.5773 96.708 66.932C96.3413 66.2867 96.158 65.5607 96.158 64.754H99.018C99.018 65.0473 99.0693 65.348 99.172 65.656C99.2747 65.9493 99.436 66.1913 99.656 66.382C99.876 66.5727 100.147 66.668 100.47 66.668H101.592V69H100.47ZM101.592 69V66.668C101.753 66.668 101.863 66.778 101.922 66.998C101.995 67.2033 102.032 67.482 102.032 67.834C102.032 68.186 101.995 68.472 101.922 68.692C101.863 68.8973 101.753 69 101.592 69ZM93.584 69C93.4373 69 93.3273 68.8973 93.254 68.692C93.1807 68.472 93.144 68.186 93.144 67.834C93.144 67.482 93.1807 67.2033 93.254 66.998C93.3273 66.778 93.4373 66.668 93.584 66.668V69ZM99.37 73.73C98.9887 73.73 98.6513 73.5907 98.358 73.312C98.0793 73.0333 97.94 72.696 97.94 72.3C97.94 71.904 98.0793 71.5667 98.358 71.288C98.6513 71.0093 98.9887 70.87 99.37 70.87C99.7807 70.87 100.118 71.0093 100.382 71.288C100.661 71.5667 100.8 71.904 100.8 72.3C100.8 72.696 100.661 73.0333 100.382 73.312C100.118 73.5907 99.7807 73.73 99.37 73.73ZM95.806 73.73C95.4247 73.73 95.0873 73.5907 94.794 73.312C94.5153 73.0333 94.376 72.696 94.376 72.3C94.376 71.904 94.5153 71.5667 94.794 71.288C95.0873 71.0093 95.4247 70.87 95.806 70.87C96.202 70.87 96.5393 71.0093 96.818 71.288C97.0967 71.5667 97.236 71.904 97.236 72.3C97.236 72.696 97.0967 73.0333 96.818 73.312C96.5393 73.5907 96.202 73.73 95.806 73.73ZM108.484 69C107.662 69 106.922 68.8167 106.262 68.45C105.616 68.0833 105.103 67.5773 104.722 66.932C104.355 66.2867 104.172 65.5607 104.172 64.754H107.032C107.032 65.0473 107.083 65.348 107.186 65.656C107.288 65.9493 107.45 66.1913 107.67 66.382C107.89 66.5727 108.161 66.668 108.484 66.668H109.606V69H108.484ZM101.598 69V66.668H102.72C103.057 66.668 103.328 66.5727 103.534 66.382C103.754 66.1913 103.915 65.9493 104.018 65.656C104.12 65.348 104.172 65.0473 104.172 64.754V57.714C104.172 57.186 104.106 56.8047 103.974 56.57C103.842 56.3353 103.695 56.1813 103.534 56.108C103.372 56.0347 103.248 55.976 103.16 55.932C103.16 55.8 103.211 55.624 103.314 55.404C103.431 55.1693 103.614 54.9567 103.864 54.766C104.128 54.5753 104.472 54.48 104.898 54.48C105.338 54.48 105.712 54.5973 106.02 54.832C106.342 55.052 106.592 55.36 106.768 55.756C106.944 56.152 107.032 56.6067 107.032 57.12V64.754C107.032 65.5607 106.841 66.2867 106.46 66.932C106.093 67.5773 105.587 68.0833 104.942 68.45C104.296 68.8167 103.556 69 102.72 69H101.598ZM101.598 69C101.451 69 101.341 68.8973 101.268 68.692C101.194 68.472 101.158 68.186 101.158 67.834C101.158 67.482 101.194 67.2033 101.268 66.998C101.341 66.778 101.451 66.668 101.598 66.668V69ZM109.606 69V66.668C109.767 66.668 109.877 66.778 109.936 66.998C110.009 67.2033 110.046 67.482 110.046 67.834C110.046 68.186 110.009 68.472 109.936 68.692C109.877 68.8973 109.767 69 109.606 69ZM109.611 69V66.668H113.395C114.173 66.668 114.913 66.5507 115.617 66.316C116.336 66.0813 116.974 65.7733 117.531 65.392C118.103 64.996 118.551 64.556 118.873 64.072C119.196 63.5733 119.357 63.0673 119.357 62.554C119.357 61.982 119.13 61.542 118.675 61.234C118.221 60.926 117.502 60.772 116.519 60.772C115.551 60.772 114.833 60.926 114.363 61.234C113.909 61.5273 113.681 61.9673 113.681 62.554C113.681 63.0673 113.843 63.5733 114.165 64.072C114.503 64.556 114.95 64.996 115.507 65.392C116.065 65.7733 116.703 66.0813 117.421 66.316C118.14 66.5507 118.881 66.668 119.643 66.668H123.427V69H119.643C118.631 69 117.605 68.8387 116.563 68.516C115.522 68.1933 114.569 67.746 113.703 67.174C112.838 66.5873 112.141 65.9053 111.613 65.128C111.085 64.336 110.821 63.478 110.821 62.554C110.821 61.8207 110.99 61.1973 111.327 60.684C111.665 60.156 112.112 59.7307 112.669 59.408C113.241 59.0707 113.857 58.8287 114.517 58.682C115.192 58.5207 115.859 58.44 116.519 58.44C117.179 58.44 117.839 58.5207 118.499 58.682C119.174 58.8287 119.79 59.0633 120.347 59.386C120.905 59.7087 121.352 60.134 121.689 60.662C122.041 61.1753 122.217 61.806 122.217 62.554C122.217 63.478 121.953 64.336 121.425 65.128C120.912 65.9053 120.223 66.5873 119.357 67.174C118.492 67.746 117.539 68.1933 116.497 68.516C115.456 68.8387 114.422 69 113.395 69H109.611ZM109.611 69C109.465 69 109.355 68.8973 109.281 68.692C109.208 68.472 109.171 68.186 109.171 67.834C109.171 67.482 109.208 67.2033 109.281 66.998C109.355 66.778 109.465 66.668 109.611 66.668V69ZM123.427 69V66.668C123.589 66.668 123.699 66.778 123.757 66.998C123.831 67.2033 123.867 67.482 123.867 67.834C123.867 68.186 123.831 68.472 123.757 68.692C123.699 68.8973 123.589 69 123.427 69ZM123.426 69V66.668H124.548C124.885 66.668 125.156 66.5727 125.362 66.382C125.582 66.1913 125.743 65.9493 125.846 65.656C125.948 65.348 126 65.0473 126 64.754V59.892C126 59.5547 126.102 59.232 126.308 58.924C126.513 58.6013 126.887 58.44 127.43 58.44C127.972 58.44 128.346 58.6013 128.552 58.924C128.757 59.232 128.86 59.5547 128.86 59.892V64.754C128.86 65.5607 128.669 66.2867 128.288 66.932C127.921 67.5773 127.415 68.0833 126.77 68.45C126.124 68.8167 125.384 69 124.548 69H123.426ZM130.312 69C129.49 69 128.75 68.8167 128.09 68.45C127.444 68.0833 126.931 67.5773 126.55 66.932C126.183 66.2867 126 65.5607 126 64.754H128.86C128.86 65.0473 128.911 65.348 129.014 65.656C129.116 65.9493 129.278 66.1913 129.498 66.382C129.718 66.5727 129.989 66.668 130.312 66.668H131.434V69H130.312ZM131.434 69V66.668C131.595 66.668 131.705 66.778 131.764 66.998C131.837 67.2033 131.874 67.482 131.874 67.834C131.874 68.186 131.837 68.472 131.764 68.692C131.705 68.8973 131.595 69 131.434 69ZM123.426 69C123.279 69 123.169 68.8973 123.096 68.692C123.022 68.472 122.986 68.186 122.986 67.834C122.986 67.482 123.022 67.2033 123.096 66.998C123.169 66.778 123.279 66.668 123.426 66.668V69ZM129.212 56.9C128.83 56.9 128.493 56.7607 128.2 56.482C127.921 56.2033 127.782 55.866 127.782 55.47C127.782 55.074 127.921 54.7367 128.2 54.458C128.493 54.1793 128.83 54.04 129.212 54.04C129.622 54.04 129.96 54.1793 130.224 54.458C130.502 54.7367 130.642 55.074 130.642 55.47C130.642 55.866 130.502 56.2033 130.224 56.482C129.96 56.7607 129.622 56.9 129.212 56.9ZM125.648 56.9C125.266 56.9 124.929 56.7607 124.636 56.482C124.357 56.2033 124.218 55.866 124.218 55.47C124.218 55.074 124.357 54.7367 124.636 54.458C124.929 54.1793 125.266 54.04 125.648 54.04C126.044 54.04 126.381 54.1793 126.66 54.458C126.938 54.7367 127.078 55.074 127.078 55.47C127.078 55.866 126.938 56.2033 126.66 56.482C126.381 56.7607 126.044 56.9 125.648 56.9ZM131.439 69V66.668H132.561C132.899 66.668 133.17 66.5727 133.375 66.382C133.595 66.1913 133.757 65.9493 133.859 65.656C133.962 65.348 134.013 65.0473 134.013 64.754V57.714C134.013 57.186 133.947 56.8047 133.815 56.57C133.683 56.3353 133.537 56.1813 133.375 56.108C133.214 56.0347 133.089 55.976 133.001 55.932C133.001 55.8 133.053 55.624 133.155 55.404C133.273 55.1693 133.456 54.9567 133.705 54.766C133.969 54.5753 134.314 54.48 134.739 54.48C135.179 54.48 135.553 54.5973 135.861 54.832C136.184 55.052 136.433 55.36 136.609 55.756C136.785 56.152 136.873 56.6067 136.873 57.12V64.754C136.873 65.5607 136.683 66.2867 136.301 66.932C135.935 67.5773 135.429 68.0833 134.783 68.45C134.138 68.8167 133.397 69 132.561 69H131.439ZM131.439 69C131.293 69 131.183 68.8973 131.109 68.692C131.036 68.472 130.999 68.186 130.999 67.834C130.999 67.482 131.036 67.2033 131.109 66.998C131.183 66.778 131.293 66.668 131.439 66.668V69ZM141.685 69C141.142 69 140.768 68.846 140.563 68.538C140.357 68.2153 140.255 67.8707 140.255 67.504V57.714C140.255 57.186 140.189 56.8047 140.057 56.57C139.925 56.3353 139.778 56.1813 139.617 56.108C139.455 56.0347 139.331 55.976 139.243 55.932C139.243 55.8147 139.294 55.6387 139.397 55.404C139.514 55.1693 139.697 54.9567 139.947 54.766C140.211 54.5753 140.563 54.48 141.003 54.48C141.428 54.48 141.795 54.5973 142.103 54.832C142.425 55.052 142.675 55.36 142.851 55.756C143.027 56.152 143.115 56.6067 143.115 57.12V67.548C143.115 67.8853 143.012 68.2153 142.807 68.538C142.601 68.846 142.227 69 141.685 69Z" fill="black"/>
</svg>
