<svg width="23" height="23" viewBox="0 0 23 23" fill="none" xmlns="http://www.w3.org/2000/svg">
<g clip-path="url(#clip0_28_3691)">
<path d="M16.9453 9.62855H16.953C17.6182 9.62855 18.1571 9.08917 18.1571 8.42451C18.1571 7.75939 17.6182 7.21997 16.953 7.21997C16.9444 7.21997 16.9358 7.21997 16.9271 7.22042H5.90155C5.89288 7.21997 5.88425 7.21997 5.87558 7.21997C5.21047 7.21997 4.67154 7.75935 4.67154 8.42451C4.67154 9.08917 5.21047 9.62855 5.87558 9.62855H5.88331" fill="#F1B986"/>
<path d="M16.6684 4.07578C13.1657 3.73621 9.66301 3.73621 6.16032 4.07578C5.8885 6.25364 5.80845 8.43145 5.92012 10.6093C6.00143 12.1946 7.27003 13.4565 8.85572 13.5314C10.5615 13.612 12.2672 13.612 13.973 13.5314C15.5587 13.4565 16.8273 12.1947 16.9086 10.6093C17.0203 8.43145 16.9402 6.25359 16.6684 4.07578Z" fill="#F1D0A5"/>
<path d="M6.16047 4.07541C7.91153 3.9056 9.66308 3.82092 11.4146 3.82092C10.5279 3.82092 9.64111 3.90663 8.75435 4.07801C8.6164 6.27685 8.57615 8.47573 8.63262 10.6741C8.66972 12.121 9.19854 13.3009 9.89245 13.57C9.54704 13.5606 9.2011 13.5475 8.85574 13.5313C7.27036 13.4566 6.00163 12.1947 5.9201 10.6092C5.80883 8.43134 5.88879 6.25335 6.16047 4.07541Z" fill="#F1B986"/>
<path d="M11.4143 11.7821C10.802 11.7821 10.2367 11.4246 9.97417 10.8713C9.89201 10.6981 9.96577 10.4911 10.1389 10.4089C10.3122 10.3267 10.5191 10.4005 10.6013 10.5737C10.7496 10.8861 11.0687 11.0879 11.4144 11.0879C11.76 11.0879 12.0792 10.8861 12.2274 10.5737C12.3096 10.4005 12.5166 10.3267 12.6898 10.4089C12.863 10.4911 12.9368 10.6981 12.8546 10.8713C12.5919 11.4246 12.0266 11.7821 11.4143 11.7821Z" fill="#C32430"/>
<path d="M8.85054 9.44195C9.12742 9.44195 9.35187 9.10784 9.35187 8.69571C9.35187 8.28357 9.12742 7.94946 8.85054 7.94946C8.57367 7.94946 8.34921 8.28357 8.34921 8.69571C8.34921 9.10784 8.57367 9.44195 8.85054 9.44195Z" fill="#454045"/>
<path d="M13.9781 9.44195C14.255 9.44195 14.4795 9.10784 14.4795 8.69571C14.4795 8.28357 14.255 7.94946 13.9781 7.94946C13.7013 7.94946 13.4768 8.28357 13.4768 8.69571C13.4768 9.10784 13.7013 9.44195 13.9781 9.44195Z" fill="#454045"/>
<path d="M14.3318 5.88679C12.3185 6.66452 9.45868 6.32159 8.01741 4.88031C8.01741 4.88031 7.67515 7.22038 5.90195 7.22038L5.12871 7.48044C3.06351 -0.626031 7.46842 1.53997 7.46842 1.53997C7.88431 0.734023 8.49003 0.400389 9.12294 0.319889C9.17864 0.313016 9.23439 0.30785 9.29045 0.304391C9.29494 0.304391 9.29939 0.304031 9.30388 0.303717C9.74969 0.279998 10.201 0.370426 10.602 0.499441C10.7417 0.544498 10.8755 0.594047 11.0007 0.645303C11.5046 0.851359 11.8717 1.08284 11.9487 1.13239C11.9587 1.13926 11.9638 1.14272 11.9638 1.14272C12.4172 0.542791 12.8496 0 13.3249 0C13.52 0 13.6548 0.0746601 13.7453 0.194018C14.0882 0.643596 13.8065 1.72469 13.7838 1.80968L13.7828 1.81345C13.7831 1.81278 13.7834 1.81138 13.7842 1.80968L13.7866 1.80348C13.8474 1.65003 14.5285 0 15.7499 0C15.827 0 15.8961 0.00723242 15.9577 0.0209785C16.8682 0.222184 16.1555 1.8148 16.0771 1.98335L16.075 1.98815C16.0729 1.99229 16.0715 1.99538 16.0709 1.99673C16.1097 1.94718 17.6346 0.0113203 18.3122 0.899471C18.3126 0.900145 18.3126 0.900145 18.3129 0.900504C18.9964 1.80141 16.344 5.10941 14.3318 5.88679Z" fill="#F4DD45"/>
<path d="M18.3122 0.899466H18.3119C17.9692 0.557206 16.7825 2.17287 16.0699 1.99776L16.075 1.98815C16.073 1.99228 16.0716 1.99538 16.0709 1.99673C16.1098 1.94722 17.6346 0.0113607 18.3122 0.899466Z" fill="#ECC32E"/>
<path d="M15.9577 0.0209785C15.4431 -0.0959082 14.966 0.883748 14.6964 1.57918C14.5661 1.91551 14.1623 2.05046 13.8557 1.86044L13.7821 1.8148L13.7827 1.81341L13.7838 1.80963H13.7841L13.7866 1.80343C13.8474 1.65003 14.5285 0 15.75 0C15.827 0 15.8962 0.00723242 15.9577 0.0209785Z" fill="#ECC32E"/>
<path d="M9.12286 0.319885C7.64996 0.579579 7.09343 3.9564 8.01733 4.88031C8.01733 4.88031 7.67507 7.22038 5.90187 7.22038L5.12863 7.48043C3.06339 -0.626035 7.46834 1.53996 7.46834 1.53996C7.88419 0.73402 8.48996 0.400385 9.12286 0.319885Z" fill="#ECC32E"/>
<path d="M13.7453 0.194018C13.2276 -0.323662 12.8826 2.33113 11.7172 2.75627C10.5518 3.18141 10.4427 2.63795 10.4427 2.63795V2.63759C11.0165 2.42538 11.5008 1.7546 11.9634 1.14232C11.9638 1.14268 11.9638 1.14268 11.9638 1.14268C11.9779 1.12377 11.992 1.10517 12.0061 1.08662C12.0236 1.0629 12.0419 1.03913 12.0598 1.01577C12.4788 0.46849 12.8833 0 13.3249 0C13.52 0 13.6548 0.0746601 13.7453 0.194018Z" fill="#ECC32E"/>
<path d="M9.30421 0.304073C9.29961 0.304073 9.29502 0.304073 9.29037 0.304416C9.29467 0.304416 9.29893 0.304073 9.30322 0.303772L9.30421 0.304073Z" fill="#ECC32E"/>
<path d="M18.3761 10.9507L12.361 12.2543L12.3609 12.2543V12.2542H10.639V12.2543L10.6389 12.2542L4.62378 10.9506C4.01033 10.8174 3.4303 11.2852 3.4303 11.9128V19.1544C3.4303 19.6179 3.75374 20.0188 4.20655 20.117L10.6389 21.5109L10.639 21.5109L12.3609 21.5109H12.361L18.7934 20.117C19.2462 20.0188 19.5696 19.6179 19.5696 19.1544V11.9129C19.5696 11.2853 18.9896 10.8175 18.3761 10.9507Z" fill="#DFEAEF"/>
<path d="M20.2173 12.6315V20.4543C20.2173 20.955 19.8679 21.3882 19.3788 21.4941L12.4302 23L11.5333 22.4327V13.5918L12.4302 13.0003L18.9281 11.5921C19.5907 11.4482 20.2173 11.9535 20.2173 12.6315Z" fill="#DA4A54"/>
<path d="M11.5333 13.5918V22.4327L10.5698 23L3.62124 21.4941C3.13209 21.3881 2.78268 20.955 2.78268 20.4543V12.6315C2.78268 11.9535 3.4093 11.4481 4.07199 11.5921L10.5698 13.0003L11.5333 13.5918Z" fill="#C32430"/>
<path d="M10.5699 23V13.0002H12.4301V23" fill="#DD636E"/>
<path d="M14.7761 15.6456C14.6163 15.6456 14.4725 15.5346 14.4373 15.372C14.3967 15.1847 14.5156 14.9999 14.703 14.9593L18.5463 14.1263C18.7338 14.0857 18.9184 14.2046 18.959 14.392C18.9997 14.5793 18.8807 14.7641 18.6934 14.8047L14.85 15.6377C14.8252 15.6431 14.8005 15.6456 14.7761 15.6456Z" fill="#454045"/>
<path d="M14.7761 16.9354C14.6163 16.9354 14.4725 16.8243 14.4373 16.6617C14.3967 16.4744 14.5156 16.2896 14.703 16.249L18.5463 15.416C18.7338 15.3755 18.9184 15.4944 18.959 15.6817C18.9997 15.869 18.8807 16.0538 18.6934 16.0944L14.85 16.9274C14.8252 16.9328 14.8005 16.9354 14.7761 16.9354Z" fill="#454045"/>
<path d="M2.59174 16.4112H2.22783C1.69043 16.4112 1.25482 15.9756 1.25482 15.4382V14.5648C1.25482 14.0274 1.69047 13.5918 2.22783 13.5918H2.59174C3.12914 13.5918 3.56475 14.0274 3.56475 14.5648V15.4382C3.56475 15.9756 3.1291 16.4112 2.59174 16.4112Z" fill="#F1D0A5"/>
<path d="M2.77872 16.3929C2.71857 16.4054 2.65563 16.4114 2.59176 16.4114H2.22753C1.69026 16.4114 1.25479 15.9755 1.25479 15.4382V14.5649C1.25479 14.0271 1.69026 13.5917 2.22753 13.5917H2.59176C2.65563 13.5917 2.71857 13.5977 2.77872 13.6102C2.33121 13.6972 1.9934 14.0915 1.9934 14.5649V15.4382C1.9934 15.9117 2.33121 16.3059 2.77872 16.3929Z" fill="#F1B986"/>
<path d="M20.7722 16.4112H20.4082C19.8708 16.4112 19.4352 15.9756 19.4352 15.4382V14.5648C19.4352 14.0274 19.8709 13.5918 20.4082 13.5918H20.7722C21.3096 13.5918 21.7452 14.0274 21.7452 14.5648V15.4382C21.7452 15.9756 21.3095 16.4112 20.7722 16.4112Z" fill="#F1D0A5"/>
<path d="M20.9591 16.3929C20.899 16.4054 20.8361 16.4114 20.7722 16.4114H20.408C19.8707 16.4114 19.4352 15.9755 19.4352 15.4382V14.5649C19.4352 14.0271 19.8707 13.5917 20.408 13.5917H20.7722C20.8361 13.5917 20.899 13.5977 20.9591 13.6102C20.5116 13.6972 20.1738 14.0915 20.1738 14.5649V15.4382C20.1738 15.9117 20.5116 16.3059 20.9591 16.3929Z" fill="#F1B986"/>
</g>
<defs>
<clipPath id="clip0_28_3691">
<rect width="23" height="23" fill="white"/>
</clipPath>
</defs>
</svg>
