<svg width="18" height="18" viewBox="0 0 18 18" fill="none" xmlns="http://www.w3.org/2000/svg">
<path d="M7.86749 1.67254L4.125 3.07504C3.2625 3.39754 2.5575 4.41754 2.5575 5.34004V10.9125C2.5575 11.7975 3.14251 12.96 3.85501 13.4925L7.08 15.9C8.1375 16.695 9.87749 16.695 10.935 15.9L14.16 13.4925C14.8725 12.96 15.4575 11.7975 15.4575 10.9125V5.34004C15.4575 4.41754 14.7525 3.39754 13.89 3.07504L10.1475 1.67254C9.51 1.44004 8.48999 1.44004 7.86749 1.67254Z" stroke="#E5890A" stroke-width="1.5" stroke-linecap="round" stroke-linejoin="round"/>
<path d="M9 11.625C10.6569 11.625 12 10.2819 12 8.625C12 6.96815 10.6569 5.625 9 5.625C7.34315 5.625 6 6.96815 6 8.625C6 10.2819 7.34315 11.625 9 11.625Z" stroke="#E5890A" stroke-width="1.5" stroke-miterlimit="10" stroke-linecap="round" stroke-linejoin="round"/>
<path d="M9.1875 7.6875V8.385C9.1875 8.6475 9.05251 8.895 8.82001 9.03L8.25 9.375" stroke="#E5890A" stroke-width="1.5" stroke-miterlimit="10" stroke-linecap="round" stroke-linejoin="round"/>
</svg>
